<?xml version="1.0" encoding="UTF-8"?>
<svg version="1.1" xmlns="http://www.w3.org/2000/svg" width="500" height="500">
<path d="M0 0 C165 0 330 0 500 0 C500 165 500 330 500 500 C335 500 170 500 0 500 C0 335 0 170 0 0 Z " fill="#CAA26A" transform="translate(0,0)"/>
<path d="M0 0 C1.02440297 3.16653944 0.94742765 5.11588303 0.0390625 8.30078125 C-0.18523437 9.11353516 -0.40953125 9.92628906 -0.640625 10.76367188 C-0.88296875 11.60478516 -1.1253125 12.44589844 -1.375 13.3125 C-2.94815728 18.87473468 -4.33279323 24.25116027 -5 30 C-4.34 30.33 -3.68 30.66 -3 31 C-4.1446875 32.0209375 -4.1446875 32.0209375 -5.3125 33.0625 C-8.32843331 36.35898525 -9.45879017 38.86306835 -11 43 C-8.69 43 -6.38 43 -4 43 C-4 41.02 -4 39.04 -4 37 C-2.68 37 -1.36 37 0 37 C1 38 1 38 1.0625 41.0625 C1.041875 42.031875 1.02125 43.00125 1 44 C1.61875 44.12375 2.2375 44.2475 2.875 44.375 C5 45 5 45 7 47 C7.125 49.625 7.125 49.625 7 52 C4.75 52.3125 4.75 52.3125 2 52 C-2 47.89189189 -2 47.89189189 -2 45 C-5.80465546 44.24374676 -8.48240877 44.28617359 -12 46 C-15.30768227 50.49670978 -17.23492929 55.926668 -19.19726562 61.11474609 C-20 63 -20 63 -22 66 C-18.535 65.505 -18.535 65.505 -15 65 C-14.896875 64.21625 -14.79375 63.4325 -14.6875 62.625 C-14 60 -14 60 -11 58 C-10.01 58 -9.02 58 -8 58 C-8.33 59.65 -8.66 61.3 -9 63 C-8.34 63.33 -7.68 63.66 -7 64 C-6.938125 63.38125 -6.87625 62.7625 -6.8125 62.125 C-6 60 -6 60 -3.4375 58.75 C-2.633125 58.5025 -1.82875 58.255 -1 58 C-0.67 58.99 -0.34 59.98 0 61 C-0.66 61.99 -1.32 62.98 -2 64 C-1.01 64 -0.02 64 1 64 C2.70532323 62.05990478 2.70532323 62.05990478 4 60 C5.32 60.33 6.64 60.66 8 61 C7.53293148 63.17965311 7.04200607 64.92587165 5.9375 66.875 C4.71019357 69.65689456 4.86339246 71.99463406 5 75 C2.13275314 74.42655063 1.1385485 74.1385485 -1 72 C-1.33 72.66 -1.66 73.32 -2 74 C-2.99 74 -3.98 74 -5 74 C-6.4606285 71.35261084 -7 70.10551666 -7 67 C-7.99 67 -8.98 67 -10 67 C-9.67 67.33 -9.34 67.66 -9 68 C-8.95936168 69.66617115 -8.957279 71.33388095 -9 73 C-10.32 73.33 -11.64 73.66 -13 74 C-14.35439668 71.29120665 -14.06501451 68.99066732 -14 66 C-19.1355494 66.63142001 -22.83353359 67.63276485 -26.26953125 71.66015625 C-28.25967176 74.73098491 -30.13094908 77.85452407 -32 81 C-33.5879399 83.09793519 -35.25135479 85.03277414 -37 87 C-35.68 87 -34.36 87 -33 87 C-32.67 85.35 -32.34 83.7 -32 82 C-30.35 81.67 -28.7 81.34 -27 81 C-26.67 82.32 -26.34 83.64 -26 85 C-25.5875 84.34 -25.175 83.68 -24.75 83 C-23.88375 82.01 -23.88375 82.01 -23 81 C-21.68 81 -20.36 81 -19 81 C-19.33 82.98 -19.66 84.96 -20 87 C-18.515 87.495 -18.515 87.495 -17 88 C-16.505 86.02 -16.505 86.02 -16 84 C-13.525 83.505 -13.525 83.505 -11 83 C-11.58828382 86.02545963 -12.2526798 89.01071921 -13 92 C-13.34060811 93.66519519 -13.67558396 95.33157466 -14 97 C-15.98 96.505 -15.98 96.505 -18 96 C-18.33 94.02 -18.66 92.04 -19 90 C-19.33 90 -19.66 90 -20 90 C-20 91.98 -20 93.96 -20 96 C-23.875 95.125 -23.875 95.125 -25 94 C-25.04063832 92.33382885 -25.042721 90.66611905 -25 89 C-26.32 89 -27.64 89 -29 89 C-28.67 89.33 -28.34 89.66 -28 90 C-27.95919217 91.99958364 -27.95745644 94.00045254 -28 96 C-31.875 95.125 -31.875 95.125 -33 94 C-33.04063832 92.33382885 -33.042721 90.66611905 -33 89 C-38.76255052 89.16883906 -41.25522844 90.59138984 -45.23632812 94.70898438 C-46.0784082 95.62647461 -46.0784082 95.62647461 -46.9375 96.5625 C-47.52595703 97.17802734 -48.11441406 97.79355469 -48.72070312 98.42773438 C-50.16121864 99.93851894 -51.58260249 101.46750555 -53 103 C-48.71 103.33 -44.42 103.66 -40 104 C-39.505 102.02 -39.505 102.02 -39 100 C-38.34 99.34 -37.68 98.68 -37 98 C-35.68 98 -34.36 98 -33 98 C-33.33 99.98 -33.66 101.96 -34 104 C-35.485 104.495 -35.485 104.495 -37 105 C-37 105.66 -37 106.32 -37 107 C-34.38095169 106.51499105 -32.85701615 105.90216895 -30.625 104.375 C-27.3094055 102.63826002 -25.55339548 103.09099185 -22 104 C-22 105.32 -22 106.64 -22 108 C-22.66 108.66 -23.32 109.32 -24 110 C-23.154375 110.721875 -22.30875 111.44375 -21.4375 112.1875 C-19 115 -19 115 -19.1875 117.8125 C-19.455625 118.534375 -19.72375 119.25625 -20 120 C-20.94875 119.835 -21.8975 119.67 -22.875 119.5 C-25.80168901 118.9473365 -25.80168901 118.9473365 -28 119 C-28.33 119.66 -28.66 120.32 -29 121 C-31.74892592 120.10845646 -33.71566361 119.25590275 -35.875 117.3125 C-37.49243822 113.98776587 -36.74754569 111.53385237 -36 108 C-36.66 108 -37.32 108 -38 108 C-38.433125 108.804375 -38.86625 109.60875 -39.3125 110.4375 C-41 113 -41 113 -43.6875 113.8125 C-44.450625 113.874375 -45.21375 113.93625 -46 114 C-45.5020163 110.26512223 -45.12508244 108.18762365 -43 105 C-53.49829458 104.46485455 -58.85726857 106.58074024 -66.6484375 113.234375 C-87.40651121 130.92128986 -115.96505806 140.15680417 -143 139 C-143 138.67 -143 138.34 -143 138 C-142.43941895 137.92595947 -141.87883789 137.85191895 -141.30126953 137.77563477 C-108.21653481 133.20335515 -77.19218465 121.34581084 -53 98 C-52.34257812 97.39414063 -51.68515625 96.78828125 -51.0078125 96.1640625 C-44.4748342 89.99235489 -36.84841991 82.20946133 -36 73 C-35.34 73.66 -34.68 74.32 -34 75 C-19.01865877 54.35648181 -19.01865877 54.35648181 -16.5390625 30.203125 C-16.69117188 29.47609375 -16.84328125 28.7490625 -17 28 C-18.423125 28.0309375 -18.423125 28.0309375 -19.875 28.0625 C-23 28 -23 28 -25 27 C-24.67 25.68 -24.34 24.36 -24 23 C-22.906875 22.896875 -21.81375 22.79375 -20.6875 22.6875 C-16.8550979 21.97298435 -16.47994558 21.59803822 -14 19 C-11.8125 19.3125 -11.8125 19.3125 -10 20 C-10.60183749 22.02045442 -11.27306096 24.02111039 -12 26 C-12.66 26.33 -13.32 26.66 -14 27 C-13.67 30.63 -13.34 34.26 -13 38 C-9.52322398 29.93005199 -6.61026594 22.84885609 -6 14 C-5.34 13.67 -4.68 13.34 -4 13 C-3.21376109 10.83927773 -2.51798774 8.64509125 -1.875 6.4375 C-1.52179688 5.23996094 -1.16859375 4.04242188 -0.8046875 2.80859375 C-0.53914062 1.88175781 -0.27359375 0.95492187 0 0 Z " fill="#FBF9F6" transform="translate(323,87)"/>
<path d="M0 0 C0.556875 0.268125 1.11375 0.53625 1.6875 0.8125 C2.290037 7.80192918 2.290037 7.80192918 0.57421875 10.6796875 C-0.64995588 12.12111002 -1.97528229 13.47528229 -3.3125 14.8125 C-2.86519531 15.225 -2.41789062 15.6375 -1.95703125 16.0625 C2.47320378 20.2943663 5.61832878 24.51120426 8.6875 29.8125 C8.6875 23.8725 8.6875 17.9325 8.6875 11.8125 C10.90939824 14.03439824 11.61348892 15.89732708 12.6875 18.8125 C13.6775 16.3375 13.6775 16.3375 14.6875 13.8125 C15.8313687 17.24410609 15.1863289 18.47285828 14.14550781 21.79736328 C13.31538409 25.44973068 13.74525407 29.04774001 14.0625 32.75 C14.11921875 33.52923828 14.1759375 34.30847656 14.234375 35.11132812 C14.37434346 37.01256639 14.52936032 38.91268686 14.6875 40.8125 C15.6775 40.8125 16.6675 40.8125 17.6875 40.8125 C17.048125 41.286875 16.40875 41.76125 15.75 42.25 C12.83899728 45.86670035 12.88100218 49.28454894 12.6875 53.8125 C13.6775 53.8125 14.6675 53.8125 15.6875 53.8125 C15.08164063 54.31136719 14.47578125 54.81023437 13.8515625 55.32421875 C11.12144825 58.46335733 10.16395838 61.70105453 9.0625 65.625 C8.85882813 66.31142578 8.65515625 66.99785156 8.4453125 67.70507812 C7.47073329 71.00677755 6.54873794 74.3199135 5.640625 77.640625 C4.70354829 80.75909341 3.48650932 83.11398602 1.6875 85.8125 C3.0075 86.8025 4.3275 87.7925 5.6875 88.8125 C3.3775 88.8125 1.0675 88.8125 -1.3125 88.8125 C-1.56128906 89.53308594 -1.81007812 90.25367188 -2.06640625 90.99609375 C-3.43378341 94.08662332 -5.09509989 96.27868646 -7.25 98.875 C-9.67093253 101.81179479 -12.05471174 104.74785324 -14.3125 107.8125 C-13.27107126 109.05594314 -13.27107126 109.05594314 -11 109.125 C-7.52713703 108.72117872 -6.64731678 107.30297124 -4.3125 104.8125 C-3.3225 104.8125 -2.3325 104.8125 -1.3125 104.8125 C-1.3125 106.1325 -1.3125 107.4525 -1.3125 108.8125 C0.0075 109.4725 1.3275 110.1325 2.6875 110.8125 C2.6875 111.8025 2.6875 112.7925 2.6875 113.8125 C-0.7775 114.3075 -0.7775 114.3075 -4.3125 114.8125 C-4.6425 116.4625 -4.9725 118.1125 -5.3125 119.8125 C-6.3025 119.8125 -7.2925 119.8125 -8.3125 119.8125 C-8.456875 118.678125 -8.60125 117.54375 -8.75 116.375 C-8.92421478 113.00472799 -8.92421478 113.00472799 -10.3125 111.8125 C-16.21074393 110.95233943 -18.99165777 112.55299105 -23.734375 115.96484375 C-31.84445472 121.77706755 -40.78677524 127.63725841 -50.3125 130.8125 C-50.9725 130.4825 -51.6325 130.1525 -52.3125 129.8125 C-51.27351562 129.1834375 -50.23453125 128.554375 -49.1640625 127.90625 C-41.11674716 122.98758705 -33.4876086 117.96431291 -26.3125 111.8125 C-25.37921875 111.08160156 -24.4459375 110.35070312 -23.484375 109.59765625 C-18.59967775 105.82774997 -18.59967775 105.82774997 -15.58203125 100.640625 C-15.45650755 97.46069117 -16.32233403 94.78473334 -17.375 91.8125 C-19.2792173 89.40868907 -19.2792173 89.40868907 -23 89.5 C-24.093125 89.603125 -25.18625 89.70625 -26.3125 89.8125 C-26.9725 88.4925 -27.6325 87.1725 -28.3125 85.8125 C-27.9825 85.4825 -27.6525 85.1525 -27.3125 84.8125 C-24.97305264 85.09980055 -22.6385857 85.43186779 -20.3125 85.8125 C-20.065 85.173125 -19.8175 84.53375 -19.5625 83.875 C-18.3125 81.8125 -18.3125 81.8125 -16.1875 81.0625 C-15.56875 80.98 -14.95 80.8975 -14.3125 80.8125 C-15.0625 86.5625 -15.0625 86.5625 -17.3125 88.8125 C-15.6625 92.1125 -14.0125 95.4125 -12.3125 98.8125 C-9.77134822 96.5095812 -8.43620106 94.66929263 -7.94140625 91.2421875 C-7.81274812 85.68718352 -8.2075742 81.59926061 -11.3125 76.8125 C-12.199375 76.895 -13.08625 76.9775 -14 77.0625 C-18.06314538 76.75584752 -19.54032449 75.74774466 -22.3125 72.8125 C-22.3125 71.4925 -22.3125 70.1725 -22.3125 68.8125 C-15.5625 68.6875 -15.5625 68.6875 -13.3125 69.8125 C-13.209375 69.049375 -13.10625 68.28625 -13 67.5 C-12.26210299 64.61549352 -11.78006016 63.45754011 -9.3125 61.8125 C-7.125 62.125 -7.125 62.125 -5.3125 62.8125 C-4.97957415 67.05730464 -4.87364128 69.16792625 -7.3125 72.75 C-7.9725 73.430625 -8.6325 74.11125 -9.3125 74.8125 C-8.631875 75.7715625 -8.631875 75.7715625 -7.9375 76.75 C-5.86708473 80.65193648 -5.11168586 84.49689633 -4.3125 88.8125 C-2.98717939 86.29771169 -1.67729769 83.77668013 -0.375 81.25 C-0.00181641 80.54552734 0.37136719 79.84105469 0.75585938 79.11523438 C3.02117452 74.68664531 4.46310086 70.87394725 4.6875 65.8125 C2.58962569 61.84984852 -0.03829389 58.85283424 -3.3125 55.8125 C0.60591827 57.11863942 3.01390809 58.64379848 5.6875 61.8125 C5.6875 62.4725 5.6875 63.1325 5.6875 63.8125 C6.3475 63.8125 7.0075 63.8125 7.6875 63.8125 C7.93692657 61.56465576 8.16133488 59.31402494 8.375 57.0625 C8.50261719 55.80953125 8.63023437 54.5565625 8.76171875 53.265625 C8.68235632 49.57318358 8.22585868 48.39653608 5.6875 45.8125 C6.1825 44.8225 6.1825 44.8225 6.6875 43.8125 C7.3475 44.4725 8.0075 45.1325 8.6875 45.8125 C9.24003221 38.46075194 8.19814108 33.300917 4.6875 26.8125 C4.44 27.76125 4.1925 28.71 3.9375 29.6875 C2.6875 32.8125 2.6875 32.8125 0.5625 34.1875 C-0.05625 34.39375 -0.675 34.6 -1.3125 34.8125 C-3.60263653 31.3772952 -3.49092973 29.827169 -3.3125 25.8125 C-4.983125 25.68875 -4.983125 25.68875 -6.6875 25.5625 C-10.3125 24.8125 -10.3125 24.8125 -11.75 22.75 C-12.0284375 21.7909375 -12.0284375 21.7909375 -12.3125 20.8125 C-9.69051226 18.65872436 -7.66845828 17.41177826 -4.3125 16.8125 C-7.27508462 16.59899685 -7.27508462 16.59899685 -9.5625 17.875 C-13.16134541 19.10187912 -15.63966927 18.64408432 -19.3125 17.8125 C-19.9725 17.1525 -20.6325 16.4925 -21.3125 15.8125 C-21.125 13.8125 -21.125 13.8125 -20.3125 11.8125 C-16.64384759 9.36673173 -14.64049657 9.57642746 -10.3125 9.8125 C-9.6525 10.1425 -8.9925 10.4725 -8.3125 10.8125 C-8.250625 9.925625 -8.18875 9.03875 -8.125 8.125 C-7.08557689 3.88735195 -4.90051572 -0.39733911 0 0 Z " fill="#FBF9F5" transform="translate(224.3125,88.1875)"/>
<path d="M0 0 C1.74988666 3.01369369 1.67453909 5.60442598 1.125 8.9375 C0.07156305 12.72780745 -1.06454954 16.43769944 -2.875 19.9375 C-3.865 20.2675 -4.855 20.5975 -5.875 20.9375 C-5.56450274 19.49956608 -5.2515224 18.0621682 -4.9375 16.625 C-4.76347656 15.82449219 -4.58945312 15.02398437 -4.41015625 14.19921875 C-3.875 11.9375 -3.875 11.9375 -2.875 8.9375 C-2.83545766 6.60450175 -2.83098268 4.27041811 -2.875 1.9375 C-8.80073726 2.43186073 -13.3597235 3.64953766 -18.6875 6.25 C-19.4103418 6.59828857 -20.13318359 6.94657715 -20.87792969 7.30541992 C-36.05273822 14.8327613 -55.02445216 24.96754785 -63.875 39.9375 C-64.54340854 42.56735808 -64.54340854 42.56735808 -63.875 44.9375 C-59.35750032 49.81639965 -51.75141796 50.18695085 -45.5 50.875 C-31.66382252 52.62676134 -31.66382252 52.62676134 -26.6875 56.75 C-26.089375 57.141875 -25.49125 57.53375 -24.875 57.9375 C-19.3092677 56.37474934 -13.91877969 54.07220106 -8.53320312 51.97265625 C-5.50970696 50.81786844 -3.14052655 49.9375 0.125 49.9375 C0.125 50.5975 0.125 51.2575 0.125 51.9375 C-0.42961914 52.13907715 -0.98423828 52.3406543 -1.55566406 52.54833984 C-4.07967929 53.46726718 -6.60234503 54.38984535 -9.125 55.3125 C-9.99769531 55.62960938 -10.87039063 55.94671875 -11.76953125 56.2734375 C-12.61386719 56.5828125 -13.45820313 56.8921875 -14.328125 57.2109375 C-15.10317383 57.49372559 -15.87822266 57.77651367 -16.67675781 58.06787109 C-18.82915642 58.91936419 -20.8695392 59.77922685 -22.875 60.9375 C-23.35503216 62.79682318 -23.35503216 62.79682318 -23.25 64.9375 C-23.87161479 73.54341137 -29.50907005 80.30452579 -35.6015625 86.046875 C-41.60642189 91.04060686 -47.80475419 95.9375 -55.875 95.9375 C-56.875 94.9375 -56.875 94.9375 -57.4375 92.0625 C-57.28852685 85.43996624 -51.95503816 79.93853582 -47.44726562 75.54638672 C-42.68324827 71.20116697 -37.64303697 67.2835437 -32.125 63.9375 C-31.0525 63.2775 -29.98 62.6175 -28.875 61.9375 C-28.875 61.2775 -28.875 60.6175 -28.875 59.9375 C-34.31798833 57.30708663 -39.21823864 56.25806761 -45.1875 55.5 C-62.12774914 53.07274529 -62.12774914 53.07274529 -66.58984375 47.98046875 C-68.47795569 44.97900205 -68.48166293 43.4426636 -67.875 39.9375 C-63.00133448 31.4517916 -55.16498917 24.74226223 -47.25 19.1875 C-46.53070313 18.68162354 -45.81140625 18.17574707 -45.0703125 17.65454102 C-39.2195975 13.64896541 -33.14707065 10.17538608 -26.875 6.875 C-25.58601807 6.1958252 -25.58601807 6.1958252 -24.27099609 5.50292969 C-6.40136271 -3.62743887 -6.40136271 -3.62743887 0 0 Z " fill="#F7F2EB" transform="translate(356.875,195.0625)"/>
<path d="M0 0 C2.42901902 2.42901902 2.32209476 3.15638857 2.375 6.5 C2.2693231 12.08461797 0.90157676 17.19638631 -2 22 C-2.99 22.33 -3.98 22.66 -5 23 C-4.55347837 19.42782699 -3.78966985 16.31664303 -2.4375 13 C-1.0719307 9.55293185 -0.71958167 6.73891112 -1 3 C-10.44057814 3 -17.95681007 7.54478697 -26 12 C-26.65371582 12.3619043 -27.30743164 12.72380859 -27.98095703 13.09667969 C-47.61561859 23.78059969 -47.61561859 23.78059969 -62 40 C-62.04022391 42.3329866 -62.04320247 44.66706666 -62 47 C-55.53152537 50.96166093 -48.34198166 51.33170788 -40.94140625 52.28515625 C-34.81635775 53.18206573 -30.73083725 54.48129754 -25.65991211 58.01611328 C-23.95364595 59.21809858 -23.95364595 59.21809858 -21.43359375 59 C-17.07116168 57.20741154 -12.76950688 55.32003793 -8.47265625 53.375 C-5.2539705 52.10055975 -2.42281437 51.41805366 1 51 C1 51.66 1 52.32 1 53 C-0.08539063 53.39832031 -1.17078125 53.79664063 -2.2890625 54.20703125 C-3.73444107 54.74200903 -5.17974988 55.27717531 -6.625 55.8125 C-7.33785156 56.07353516 -8.05070312 56.33457031 -8.78515625 56.60351562 C-15.08898458 58.89085194 -15.08898458 58.89085194 -21 62 C-21.92781687 64.16501256 -21.92781687 64.16501256 -22 66.625 C-23.17396709 74.74790363 -28.02136771 80.59076126 -34 86 C-34.59683594 86.56589844 -35.19367187 87.13179688 -35.80859375 87.71484375 C-40.07898123 91.65225755 -44.38828093 95.21336295 -50 97 C-54.27272727 96.72727273 -54.27272727 96.72727273 -56 95 C-56 87.98435801 -52.63955734 84.01595882 -48 79 C-41.53034245 72.55009713 -34.63699784 67.00297906 -27 62 C-34.00402381 57.18473363 -42.59661753 56.4689027 -50.8203125 55.23242188 C-56.11730051 54.36398453 -60.30461305 52.7070784 -64.875 49.8125 C-66.40244163 47.35162181 -66.65938511 45.09973232 -66.5234375 42.234375 C-63.89372612 31.00903985 -49.73792418 22.59677765 -40.54321289 16.78637695 C-11.79448318 -0.90726794 -11.79448318 -0.90726794 0 0 Z " fill="#F9F4EE" transform="translate(96,194)"/>
<path d="M0 0 C0.99 0 1.98 0 3 0 C1.98857061 3.03428818 0.97797806 6.05994862 -0.125 9.0625 C-0.97309922 11.90969022 -1.25258817 14.05313799 -1 17 C0.04596128 18.24496487 0.04596128 18.24496487 2.34375 18.34375 C5.12799924 18.26414146 5.12799924 18.26414146 6.84375 16.09375 C7.66359375 14.80984375 7.66359375 14.80984375 8.5 13.5 C9.09425781 12.59507812 9.68851562 11.69015625 10.30078125 10.7578125 C11.36135767 9.03650916 12.40375837 7.30371146 13.41796875 5.5546875 C13.83691406 4.83539063 14.25585938 4.11609375 14.6875 3.375 C15.04199219 2.72273437 15.39648438 2.07046875 15.76171875 1.3984375 C16.17035156 0.93695313 16.57898438 0.47546875 17 0 C18.32 0 19.64 0 21 0 C21.08333357 4.8333472 20.95261487 9.23692563 20 14 C20.52207031 13.56429688 21.04414063 13.12859375 21.58203125 12.6796875 C27.27551019 8.07305481 33.22398601 3.87256661 40 1 C40.66 1.33 41.32 1.66 42 2 C41.51120361 2.31227539 41.02240723 2.62455078 40.51879883 2.94628906 C38.28149138 4.37795389 36.04698613 5.81393614 33.8125 7.25 C33.04357422 7.74113281 32.27464844 8.23226562 31.48242188 8.73828125 C28.22044625 10.83826556 25.09779492 12.92113734 22.07421875 15.359375 C20 17 20 17 18 17 C17.83274414 17.67297119 17.66548828 18.34594238 17.49316406 19.03930664 C15.74955736 25.76974552 13.53372854 32.07146155 10.75 38.4375 C10.35377441 39.34838379 9.95754883 40.25926758 9.54931641 41.19775391 C0.16803651 62.41039444 0.16803651 62.41039444 -8 68 C-11.8125 69.0625 -11.8125 69.0625 -15 69 C-17 67 -17 67 -17.375 63.5 C-16.87250239 48.76888597 -3.97737871 34.598198 6.13671875 24.96484375 C11.29720494 20.3194523 11.29720494 20.3194523 14.19140625 19.00390625 C14.78824219 18.67261719 15.38507813 18.34132813 16 18 C16.78384744 14.77376551 16.78384744 14.77376551 17 11 C17.31263652 8.33049442 17.65911346 5.66612072 18 3 C17.41992188 4.03640625 16.83984375 5.0728125 16.2421875 6.140625 C15.45384853 7.5108332 14.66474531 8.88060189 13.875 10.25 C13.49601562 10.93191406 13.11703125 11.61382812 12.7265625 12.31640625 C10.11237049 16.80410253 7.68625549 19.46827125 3 22 C0.3125 22.5 0.3125 22.5 -2 22 C-4.61114423 19.74901359 -4.96884872 18.22695933 -5.4375 14.8125 C-4.88491045 9.99707678 -3.17407235 6.2870262 -1 2 C-0.67 1.34 -0.34 0.68 0 0 Z " fill="#F8F4ED" transform="translate(431,245)"/>
<path d="M0 0 C1.485 0.495 1.485 0.495 3 1 C1.828125 2.33463542 0.65625 3.66927083 -0.515625 5.00390625 C-2.6113435 7.82209613 -4.25755396 10.95071943 -6 14 C7.53 14 21.06 14 35 14 C35 14.66 35 15.32 35 16 C21.14 16.33 7.28 16.66 -7 17 C-13.20481869 29.40963739 -18.51050678 40.96106349 -18 55 C-16.31026274 55.88556744 -16.31026274 55.88556744 -14 56 C-9.24866015 53.26781299 -5.80460215 49.95354317 -2.1875 45.875 C-1.69830078 45.33746094 -1.20910156 44.79992187 -0.70507812 44.24609375 C1.94440743 41.33407959 1.94440743 41.33407959 4 38 C4.99 38.495 4.99 38.495 6 39 C-6.26439483 55.63219741 -6.26439483 55.63219741 -13 59 C-16.5 59.25 -16.5 59.25 -20 59 C-23.07857823 54.38213266 -22.70088627 50.41978437 -22 45 C-19.67456434 35.71316402 -16.1472641 26.61354851 -12 18 C-18.27 17.67 -24.54 17.34 -31 17 C-30.505 15.515 -30.505 15.515 -30 14 C-23.07 14 -16.14 14 -9 14 C-8.34 12.35 -7.68 10.7 -7 9 C-4.93280043 5.66580714 -2.925261 2.6327349 0 0 Z " fill="#F8F3EC" transform="translate(378,208)"/>
<path d="M0 0 C0.556875 0.268125 1.11375 0.53625 1.6875 0.8125 C2.290037 7.80192918 2.290037 7.80192918 0.57421875 10.6796875 C-0.64995588 12.12111002 -1.97528229 13.47528229 -3.3125 14.8125 C-2.84199219 15.25980469 -2.37148437 15.70710938 -1.88671875 16.16796875 C1.53826649 19.49367905 4.47621658 22.52000866 6.6875 26.8125 C6.0275 26.8125 5.3675 26.8125 4.6875 26.8125 C4.44 27.76125 4.1925 28.71 3.9375 29.6875 C2.6875 32.8125 2.6875 32.8125 0.5625 34.1875 C-0.05625 34.39375 -0.675 34.6 -1.3125 34.8125 C-3.60263653 31.3772952 -3.49092973 29.827169 -3.3125 25.8125 C-4.42625 25.73 -5.54 25.6475 -6.6875 25.5625 C-10.3125 24.8125 -10.3125 24.8125 -11.75 22.75 C-11.935625 22.110625 -12.12125 21.47125 -12.3125 20.8125 C-9.69051226 18.65872436 -7.66845828 17.41177826 -4.3125 16.8125 C-7.27508462 16.59899685 -7.27508462 16.59899685 -9.5625 17.875 C-13.16134541 19.10187912 -15.63966927 18.64408432 -19.3125 17.8125 C-19.9725 17.1525 -20.6325 16.4925 -21.3125 15.8125 C-21.125 13.8125 -21.125 13.8125 -20.3125 11.8125 C-16.64384759 9.36673173 -14.64049657 9.57642746 -10.3125 9.8125 C-9.6525 10.1425 -8.9925 10.4725 -8.3125 10.8125 C-8.2196875 9.4821875 -8.2196875 9.4821875 -8.125 8.125 C-7.08557689 3.88735195 -4.90051572 -0.39733911 0 0 Z " fill="#F7F2EC" transform="translate(224.3125,88.1875)"/>
<path d="M0 0 C1 2 1 2 0.3984375 3.94848633 C0.06070312 4.73505615 -0.27703125 5.52162598 -0.625 6.33203125 C-1.18513794 7.64469971 -1.18513794 7.64469971 -1.7565918 8.98388672 C-2.1669165 9.9173291 -2.57724121 10.85077148 -3 11.8125 C-3.62032104 13.2358667 -3.62032104 13.2358667 -4.25317383 14.68798828 C-13.63523619 35.95544331 -13.63523619 35.95544331 -21 43 C-23.8125 44 -23.8125 44 -26 44 C-26.33 43.67 -26.66 43.34 -27 43 C-26.42867821 25.00336362 -12.27827566 11.71733921 0 0 Z " fill="#CBA46E" transform="translate(444,267)"/>
<path d="M0 0 C0.74764051 5.85651731 -0.66009469 8.92427173 -4.09765625 13.6640625 C-9.30879066 20.06295034 -15.26584523 26.69231117 -23 30 C-26.5 30.3125 -26.5 30.3125 -29 30 C-28.52273554 22.36376864 -21.61120417 16.16828443 -16.4296875 11.09765625 C-3.57541899 0 -3.57541899 0 0 0 Z " fill="#CBA46E" transform="translate(71,258)"/>
<path d="M0 0 C-0.14499987 9.13499171 -3.64094721 13.67506895 -9.99609375 19.98046875 C-14.56646922 24.1588432 -19.55930399 28.70717481 -25.9375 29.25 C-26.618125 29.1675 -27.29875 29.085 -28 29 C-27.81146301 21.64705754 -22.79980424 16.79471369 -17.8515625 11.85546875 C-4.93068834 0 -4.93068834 0 0 0 Z " fill="#CBA46E" transform="translate(330,259)"/>
<path d="M0 0 C2.22189824 2.22189824 2.92598892 4.08482708 4 7 C4.66 5.35 5.32 3.7 6 2 C7.1438687 5.43160609 6.4988289 6.66035828 5.45800781 9.98486328 C4.62788409 13.63723068 5.05775407 17.23524001 5.375 20.9375 C5.43171875 21.71673828 5.4884375 22.49597656 5.546875 23.29882812 C5.68684346 25.20006639 5.84186032 27.10018686 6 29 C6.99 29 7.98 29 9 29 C8.360625 29.474375 7.72125 29.94875 7.0625 30.4375 C4.15149728 34.05420035 4.19350218 37.47204894 4 42 C4.99 42 5.98 42 7 42 C6.39414063 42.49886719 5.78828125 42.99773437 5.1640625 43.51171875 C2.43394825 46.65085733 1.47645838 49.88855453 0.375 53.8125 C0.17132813 54.49892578 -0.03234375 55.18535156 -0.2421875 55.89257812 C-1.21676671 59.19427755 -2.13876206 62.5074135 -3.046875 65.828125 C-3.98395171 68.94659341 -5.20099068 71.30148602 -7 74 C-5.68 74.99 -4.36 75.98 -3 77 C-5.97 77 -8.94 77 -12 77 C-10.0705306 71.93631933 -7.60264138 67.17567558 -5.14453125 62.3515625 C-3.79317013 58.39433439 -4.0184961 56.03238549 -5 52 C-7.04131858 49.00606608 -9.37716079 46.49169725 -12 44 C-8.08158173 45.30613942 -5.67359191 46.83129848 -3 50 C-3 50.66 -3 51.32 -3 52 C-2.34 52 -1.68 52 -1 52 C-0.75057343 49.75215576 -0.52616512 47.50152494 -0.3125 45.25 C-0.18488281 43.99703125 -0.05726563 42.7440625 0.07421875 41.453125 C-0.00514368 37.76068358 -0.46164132 36.58403608 -3 34 C-2.67 33.34 -2.34 32.68 -2 32 C-1.34 32.66 -0.68 33.32 0 34 C0.39325819 27.02330843 -0.36903961 21.48343811 -3 15 C-2.01 15.99 -1.02 16.98 0 18 C0 12.06 0 6.12 0 0 Z " fill="#F7F2EA" transform="translate(233,100)"/>
<path d="M0 0 C0 1.98 0 3.96 0 6 C0.928125 5.95875 1.85625 5.9175 2.8125 5.875 C6 6 6 6 9 8 C8.67 9.32 8.34 10.64 8 12 C6.02 12.33 4.04 12.66 2 13 C1.67 14.65 1.34 16.3 1 18 C-2.29014997 18.22432841 -4.42277246 18.30380397 -7.375 16.75 C-9 15 -9 15 -9 11 C-10.32 11 -11.64 11 -13 11 C-12.690625 12.6396875 -12.690625 12.6396875 -12.375 14.3125 C-12 18 -12 18 -14 21 C-14.66 21 -15.32 21 -16 21 C-18.07128547 17.58895449 -18.26961411 14.89464724 -18.25 10.9375 C-18.25515625 9.89464844 -18.2603125 8.85179688 -18.265625 7.77734375 C-18 5 -18 5 -16 2 C-14.68 2.66 -13.36 3.32 -12 4 C-12 5.65 -12 7.3 -12 9 C-11.01 9.33 -10.02 9.66 -9 10 C-8.9175 8.906875 -8.835 7.81375 -8.75 6.6875 C-8 3 -8 3 -6.1875 1.0625 C-4 0 -4 0 0 0 Z " fill="#F9F6F2" transform="translate(343,102)"/>
<path d="M0 0 C0.93005859 0.41185547 0.93005859 0.41185547 1.87890625 0.83203125 C2.20890625 1.82203125 2.53890625 2.81203125 2.87890625 3.83203125 C1.82703125 3.95578125 0.77515625 4.07953125 -0.30859375 4.20703125 C-3.08578618 4.97878655 -3.97534554 5.62576986 -5.6640625 8.015625 C-7.80626948 12.24349978 -9.33018187 16.14545763 -10.12109375 20.83203125 C-4.28529235 18.09682558 -1.99806037 13.40284455 1.21679688 8.10546875 C1.84038086 7.11546875 1.84038086 7.11546875 2.4765625 6.10546875 C2.84273682 5.50138184 3.20891113 4.89729492 3.58618164 4.27490234 C5.21649893 2.45522809 6.50644072 2.21089931 8.87890625 1.83203125 C8.00390625 9.45703125 8.00390625 9.45703125 6.87890625 12.83203125 C6.83936391 15.1650295 6.83488893 17.49911314 6.87890625 19.83203125 C17.22381848 19.83203125 24.0620528 12.79233216 31.06640625 5.83203125 C32.34513792 4.50627092 33.61911804 3.17580534 34.87890625 1.83203125 C34.87890625 6.60592409 31.66711328 8.86539048 28.53125 12.25390625 C23.04860461 17.58313446 16.11333748 23.54000151 8.25390625 24.08203125 C4.87890625 23.83203125 4.87890625 23.83203125 2.87890625 21.83203125 C2.34565658 15.64633508 3.44512743 11.5108485 5.87890625 5.83203125 C5.28722656 6.79625 4.69554687 7.76046875 4.0859375 8.75390625 C3.28822853 10.03024061 2.49002514 11.30626605 1.69140625 12.58203125 C1.30404297 13.21625 0.91667969 13.85046875 0.51757812 14.50390625 C-1.91269979 18.360215 -4.21539866 21.31388573 -8.12109375 23.83203125 C-10.93359375 23.58203125 -10.93359375 23.58203125 -13.12109375 22.83203125 C-13.92793211 15.40911831 -11.05355362 9.6869785 -6.59375 3.82421875 C-2.88946491 -0.22881582 -2.88946491 -0.22881582 0 0 Z " fill="#F8F3EC" transform="translate(392.12109375,243.16796875)"/>
<path d="M0 0 C0.5775 0.226875 1.155 0.45375 1.75 0.6875 C1.75 2.0075 1.75 3.3275 1.75 4.6875 C-0.23 4.6875 -2.21 4.6875 -4.25 4.6875 C-8.41344963 12.29025786 -8.41344963 12.29025786 -10.25 20.6875 C-4.66292788 16.46869044 -1.31605555 12.08418802 2.26953125 6.078125 C3.75 3.6875 3.75 3.6875 5.75 1.6875 C6.74 1.6875 7.73 1.6875 8.75 1.6875 C8.29177532 5.15691546 7.85868317 8.36145049 6.75 11.6875 C6.68334624 13.08189664 6.66461801 14.47919875 6.6875 15.875 C6.708125 17.133125 6.72875 18.39125 6.75 19.6875 C12.93652767 19.3307144 16.5314777 18.04937545 21.3125 14 C22.14720825 13.32541748 22.14720825 13.32541748 22.9987793 12.63720703 C24.59765888 11.33766533 26.17635011 10.01741086 27.75 8.6875 C28.53890625 8.02878906 29.3278125 7.37007812 30.140625 6.69140625 C31.6931754 5.37552512 33.22498075 4.03519143 34.75 2.6875 C31.47001095 10.87765229 21.58229733 19.17668094 13.7890625 22.98828125 C10.64912981 24.06500147 8.0133846 24.1536978 4.75 23.6875 C2.75 21.6875 2.75 21.6875 2.5 18 C2.5890661 13.94007007 3.46970422 10.52838735 4.75 6.6875 C4.37488281 7.33976563 3.99976563 7.99203125 3.61328125 8.6640625 C-4.26235453 22.11414073 -4.26235453 22.11414073 -9.5 23.625 C-10.4075 23.645625 -11.315 23.66625 -12.25 23.6875 C-13.25 22.6875 -13.25 22.6875 -13.33984375 20.75390625 C-12.90430524 13.59544003 -10.67917856 8.34066702 -6.25 2.6875 C-2.7488841 -0.38178946 -2.7488841 -0.38178946 0 0 Z " fill="#F8F3EC" transform="translate(250.25,243.3125)"/>
<path d="M0 0 C0.5775 0.226875 1.155 0.45375 1.75 0.6875 C1.75 2.0075 1.75 3.3275 1.75 4.6875 C-0.23 4.6875 -2.21 4.6875 -4.25 4.6875 C-8.41344963 12.29025786 -8.41344963 12.29025786 -10.25 20.6875 C-4.66292788 16.46869044 -1.31605555 12.08418802 2.26953125 6.078125 C3.75 3.6875 3.75 3.6875 5.75 1.6875 C6.74 1.6875 7.73 1.6875 8.75 1.6875 C8.29177532 5.15691546 7.85868317 8.36145049 6.75 11.6875 C6.68334624 13.08189664 6.66461801 14.47919875 6.6875 15.875 C6.708125 17.133125 6.72875 18.39125 6.75 19.6875 C12.93652767 19.3307144 16.5314777 18.04937545 21.3125 14 C22.14720825 13.32541748 22.14720825 13.32541748 22.9987793 12.63720703 C24.59765888 11.33766533 26.17635011 10.01741086 27.75 8.6875 C28.53890625 8.02878906 29.3278125 7.37007812 30.140625 6.69140625 C31.6931754 5.37552512 33.22498075 4.03519143 34.75 2.6875 C31.47001095 10.87765229 21.58229733 19.17668094 13.7890625 22.98828125 C10.64912981 24.06500147 8.0133846 24.1536978 4.75 23.6875 C2.75 21.6875 2.75 21.6875 2.5 18 C2.5890661 13.94007007 3.46970422 10.52838735 4.75 6.6875 C4.37488281 7.33976563 3.99976562 7.99203125 3.61328125 8.6640625 C-4.26235453 22.11414073 -4.26235453 22.11414073 -9.5 23.625 C-10.4075 23.645625 -11.315 23.66625 -12.25 23.6875 C-13.25 22.6875 -13.25 22.6875 -13.33984375 20.75390625 C-12.90430524 13.59544003 -10.67917856 8.34066702 -6.25 2.6875 C-2.7488841 -0.38178946 -2.7488841 -0.38178946 0 0 Z " fill="#F8F3EC" transform="translate(105.25,243.3125)"/>
<path d="M0 0 C0.66 0 1.32 0 2 0 C1.51341266 2.75732824 0.91062728 5.24183206 -0.0625 7.875 C-1.11469966 11.3823322 -1.14567663 14.35808424 -1 18 C2.69149877 18.35687059 2.69149877 18.35687059 5.80859375 16.56640625 C6.61490234 15.57447266 6.61490234 15.57447266 7.4375 14.5625 C8.02917969 13.840625 8.62085938 13.11875 9.23046875 12.375 C11.53657851 9.27982398 13.62948228 6.07868493 15.640625 2.78515625 C17 1 17 1 20 0 C19.67 5.94 19.34 11.88 19 18 C26.62162426 17.76182424 30.31984525 15.95810118 36 11 C36.81984375 10.35804688 36.81984375 10.35804688 37.65625 9.703125 C41.32461166 6.82084084 44.12483149 3.63624253 47 0 C47 4.92971546 43.24490961 7.53196301 40 11 C39.43667969 11.639375 38.87335938 12.27875 38.29296875 12.9375 C33.13785656 18.5393081 27.73634553 21.57815454 20.125 22.4375 C17 22 17 22 15.28515625 20.7578125 C14 19 14 19 13.92578125 16.80859375 C14.05339844 16.02613281 14.18101562 15.24367188 14.3125 14.4375 C14.43238281 13.65246094 14.55226562 12.86742187 14.67578125 12.05859375 C14.78277344 11.37925781 14.88976562 10.69992188 15 10 C15 9.34 15 8.68 15 8 C14.69707031 8.51949219 14.39414063 9.03898438 14.08203125 9.57421875 C11.47973392 13.90604291 9.02157095 17.84019425 5 21 C1.1875 21.8125 1.1875 21.8125 -2 22 C-4.52051006 19.47948994 -5.00606711 17.95601347 -5.5 14.375 C-5.33708308 8.97837711 -2.63139884 4.58615227 0 0 Z " fill="#F8F3EC" transform="translate(144,245)"/>
<path d="M0 0 C2.4375 0.75 2.4375 0.75 4.4375 2.75 C4.81640625 5.28125 4.81640625 5.28125 5 8.25 C5.17269346 12.14598635 5.17269346 12.14598635 6.4375 15.75 C16.4331948 15.32465129 23.39021668 8.24041353 30.4375 1.75 C30.4375 4.75 30.4375 4.75 28.53125 6.8359375 C13.7178186 19.9092369 13.7178186 19.9092369 5.4375 19.75 C2.59413537 17.59134266 1.56100566 16.19974703 0.609375 12.734375 C0.47015625 11.66703125 0.3309375 10.5996875 0.1875 9.5 C0.03796875 8.42234375 -0.1115625 7.3446875 -0.265625 6.234375 C-0.36359375 5.41453125 -0.4615625 4.5946875 -0.5625 3.75 C-4.9168073 5.09438304 -6.65118237 6.71178739 -9.125 10.5 C-9.72054687 11.39203125 -10.31609375 12.2840625 -10.9296875 13.203125 C-11.88110799 14.68715888 -12.82680036 16.17495352 -13.7578125 17.671875 C-15.67567067 20.72232657 -17.11186678 22.51763099 -20.5625 23.75 C-21.5625 22.75 -21.5625 22.75 -21.9375 19.9375 C-21.88144798 13.19724508 -18.22684571 6.24651856 -14.5625 0.75 C-13.9025 0.75 -13.2425 0.75 -12.5625 0.75 C-13.12534288 5.1120323 -14.81838413 8.65621046 -16.72265625 12.56640625 C-17.80181939 14.98230808 -17.80181939 14.98230808 -17.5625 18.75 C-17.19898438 18.10933594 -16.83546875 17.46867187 -16.4609375 16.80859375 C-6.33233936 -0.61778921 -6.33233936 -0.61778921 0 0 Z " fill="#F8F2EB" transform="translate(210.5625,243.25)"/>
<path d="M0 0 C-0.33 1.65 -0.66 3.3 -1 5 C-0.34 5.33 0.32 5.66 1 6 C1.0928125 5.071875 1.0928125 5.071875 1.1875 4.125 C2 2 2 2 4.5625 0.75 C5.366875 0.5025 6.17125 0.255 7 0 C7.33 0.99 7.66 1.98 8 3 C7.01 4.485 7.01 4.485 6 6 C6.99 6 7.98 6 9 6 C10.70532323 4.05990478 10.70532323 4.05990478 12 2 C13.32 2.33 14.64 2.66 16 3 C15.53293148 5.17965311 15.04200607 6.92587165 13.9375 8.875 C12.71019357 11.65689456 12.86339246 13.99463406 13 17 C10.13275314 16.42655063 9.1385485 16.1385485 7 14 C6.67 14.66 6.34 15.32 6 16 C5.01 16 4.02 16 3 16 C1.5393715 13.35261084 1 12.10551666 1 9 C0.01 9 -0.98 9 -2 9 C-1.67 9.33 -1.34 9.66 -1 10 C-0.95936168 11.66617115 -0.957279 13.33388095 -1 15 C-2.32 15.33 -3.64 15.66 -5 16 C-6.35439668 13.29120665 -6.06501451 10.99066732 -6 8 C-8.97 8.66 -11.94 9.32 -15 10 C-15 9.34 -15 8.68 -15 8 C-12.36 7.67 -9.72 7.34 -7 7 C-6.896875 6.21625 -6.79375 5.4325 -6.6875 4.625 C-5.65464675 0.68137849 -3.95612748 0 0 0 Z " fill="#F0E5DA" transform="translate(315,145)"/>
<path d="M0 0 C2.375 0.125 2.375 0.125 5 1 C6.8125 3.5625 6.8125 3.5625 8 6 C8.598125 5.484375 9.19625 4.96875 9.8125 4.4375 C10.534375 3.963125 11.25625 3.48875 12 3 C12.99 3.33 13.98 3.66 15 4 C14.38727783 10.494855 14.38727783 10.494855 12.5625 12.875 C11 14 11 14 9 15 C9.350625 15.598125 9.70125 16.19625 10.0625 16.8125 C11 19 11 19 10 22 C7.69 22.33 5.38 22.66 3 23 C2.67 21.68 2.34 20.36 2 19 C3.98 18.67 5.96 18.34 8 18 C7.34 17.34 6.68 16.68 6 16 C5.071875 16.20625 4.14375 16.4125 3.1875 16.625 C0 17 0 17 -2.875 15.0625 C-3.57625 14.381875 -4.2775 13.70125 -5 13 C-4.67 11.68 -4.34 10.36 -4 9 C-2.68 8.67 -1.36 8.34 0 8 C-0.2784375 6.2984375 -0.2784375 6.2984375 -0.5625 4.5625 C-0.706875 3.386875 -0.85125 2.21125 -1 1 C-0.67 0.67 -0.34 0.34 0 0 Z " fill="#F3EAE1" transform="translate(305,73)"/>
<path d="M0 0 C0.99 0.33 1.98 0.66 3 1 C2.125 8.875 2.125 8.875 1 10 C2.98 11.32 4.96 12.64 7 14 C6.67 15.32 6.34 16.64 6 18 C-1.4659249 18.36717663 -1.4659249 18.36717663 -4 16.625 C-5 15 -5 15 -5 13 C-5.99 13 -6.98 13 -8 13 C-7.67 15.97 -7.34 18.94 -7 22 C-8.32 22 -9.64 22 -11 22 C-12.03013277 20.35178756 -13.03114628 18.68496298 -14 17 C-14.99 17 -15.98 17 -17 17 C-15.68 15.68 -14.36 14.36 -13 13 C-13.33 12.34 -13.66 11.68 -14 11 C-14.039992 9.00039988 -14.04346799 6.99952758 -14 5 C-12.68 4.67 -11.36 4.34 -10 4 C-8.79371992 6.33214148 -7.8345262 8.49642139 -7 11 C-6.773125 9.9275 -6.54625 8.855 -6.3125 7.75 C-4.86488057 3.61394449 -3.74271562 2.19085792 0 0 Z " fill="#EDE1D5" transform="translate(259,110)"/>
<path d="M0 0 C0 0.66 0 1.32 0 2 C-1.37011719 3.2175293 -1.37011719 3.2175293 -3.296875 4.57421875 C-4.00223389 5.07356934 -4.70759277 5.57291992 -5.43432617 6.08740234 C-6.19849854 6.61543457 -6.9626709 7.1434668 -7.75 7.6875 C-8.52770752 8.22842285 -9.30541504 8.7693457 -10.10668945 9.32666016 C-30.16530179 23.14890896 -52.73220973 33.30065183 -77.5 33.0625 C-78.7271875 33.05347656 -79.954375 33.04445312 -81.21875 33.03515625 C-82.1365625 33.02355469 -83.054375 33.01195312 -84 33 C-84 32.67 -84 32.34 -84 32 C-83.43941895 31.92595947 -82.87883789 31.85191895 -82.30126953 31.77563477 C-54.55204885 27.94071824 -26.07513248 18.79624101 -3.80078125 1.26953125 C-2 0 -2 0 0 0 Z " fill="#F9F5F0" transform="translate(264,193)"/>
<path d="M0 0 C0.33 1.32 0.66 2.64 1 4 C1.4125 3.34 1.825 2.68 2.25 2 C2.8275 1.34 3.405 0.68 4 0 C5.32 0 6.64 0 8 0 C7.67 1.98 7.34 3.96 7 6 C7.99 6.33 8.98 6.66 10 7 C10.33 5.68 10.66 4.36 11 3 C12.65 2.67 14.3 2.34 16 2 C15.41171618 5.02545963 14.7473202 8.01071921 14 11 C13.65939189 12.66519519 13.32441604 14.33157466 13 16 C11.68 15.67 10.36 15.34 9 15 C8.67 13.02 8.34 11.04 8 9 C7.67 9 7.34 9 7 9 C7 10.98 7 12.96 7 15 C3.125 14.125 3.125 14.125 2 13 C1.95936168 11.33382885 1.957279 9.66611905 2 8 C0.68 8 -0.64 8 -2 8 C-1.67 8.33 -1.34 8.66 -1 9 C-0.95919217 10.99958364 -0.95745644 13.00045254 -1 15 C-4.875 14.125 -4.875 14.125 -6 13 C-6.04063832 11.33382885 -6.042721 9.66611905 -6 8 C-6.99 8 -7.98 8 -9 8 C-9 7.34 -9 6.68 -9 6 C-8.01 6 -7.02 6 -6 6 C-5.87625 5.195625 -5.7525 4.39125 -5.625 3.5625 C-5.41875 2.716875 -5.2125 1.87125 -5 1 C-3 0 -3 0 0 0 Z " fill="#EFE4D9" transform="translate(296,168)"/>
<path d="M0 0 C0.99 0 1.98 0 3 0 C4.20272819 2.40545638 4.10071472 3.94996953 4.0625 6.625 C4.05347656 7.44226563 4.04445312 8.25953125 4.03515625 9.1015625 C4.02355469 9.72804687 4.01195312 10.35453125 4 11 C4.928125 10.95875 5.85625 10.9175 6.8125 10.875 C10 11 10 11 13 13 C12.625 14.9375 12.625 14.9375 12 17 C9.04335481 18.4783226 6.25770263 18.06032783 3 18 C3 20.31 3 22.62 3 25 C1.68 25.33 0.36 25.66 -1 26 C-3.50126055 23.39452026 -3.99011447 22.18452995 -4.1875 18.5 C-4.125625 17.345 -4.06375 16.19 -4 15 C-3.7018576 11.2236068 -3.7018576 11.2236068 -5 9 C-4.34 9 -3.68 9 -3 9 C-3.061875 8.2575 -3.12375 7.515 -3.1875 6.75 C-2.96646289 3.50812237 -2.27837542 2.27837542 0 0 Z " fill="#E9DCD0" transform="translate(237,169)"/>
<path d="M0 0 C0 1.32 0 2.64 0 4 C-0.66 4.66 -1.32 5.32 -2 6 C-1.154375 6.721875 -0.30875 7.44375 0.5625 8.1875 C3 11 3 11 2.8125 13.8125 C2.544375 14.534375 2.27625 15.25625 2 16 C1.05125 15.835 0.1025 15.67 -0.875 15.5 C-3.80168901 14.9473365 -3.80168901 14.9473365 -6 15 C-6.33 15.66 -6.66 16.32 -7 17 C-9.71245044 16.12028634 -11.71037657 15.25100697 -13.875 13.375 C-15.67802548 9.56861287 -14.98626265 7.07655228 -14 3 C-12.1875 1.625 -12.1875 1.625 -10 1 C-9.071875 0.4121875 -9.071875 0.4121875 -8.125 -0.1875 C-5.17865786 -1.31404258 -3.02096204 -0.68658228 0 0 Z " fill="#EADCD0" transform="translate(301,191)"/>
<path d="M0 0 C4.40114397 0.50298788 6.71195019 2.08772731 10 5 C10.33 4.01 10.66 3.02 11 2 C12.32 2.33 13.64 2.66 15 3 C16.06851393 6.66347635 16.59621848 8.73496079 14.94140625 12.24609375 C12.56033219 15.7156588 11.08092379 17.7132243 6.9375 18.8125 C3.16059038 17.76782287 1.50594293 15.94816815 -1 13 C-0.67 12.01 -0.34 11.02 0 10 C0.66 10 1.32 10 2 10 C1.2265625 8.9171875 1.2265625 8.9171875 0.4375 7.8125 C-1.21442982 4.5804634 -1.06351675 3.38391693 0 0 Z " fill="#EFE6DD" transform="translate(270,131)"/>
<path d="M0 0 C0.598125 0.226875 1.19625 0.45375 1.8125 0.6875 C2.14542585 4.93230464 2.25135872 7.04292625 -0.1875 10.625 C-0.8475 11.305625 -1.5075 11.98625 -2.1875 12.6875 C-1.73375 13.285625 -1.28 13.88375 -0.8125 14.5 C1.49775029 19.0316448 2.06858808 23.69016227 2.8125 28.6875 C2.1525 28.6875 1.4925 28.6875 0.8125 28.6875 C0.4825 29.3475 0.1525 30.0075 -0.1875 30.6875 C-0.30867187 29.78386719 -0.42984375 28.88023437 -0.5546875 27.94921875 C-0.72226563 26.76972656 -0.88984375 25.59023437 -1.0625 24.375 C-1.22492188 23.20324219 -1.38734375 22.03148437 -1.5546875 20.82421875 C-2.01050621 17.54219105 -2.01050621 17.54219105 -4.1875 14.6875 C-5.115625 14.708125 -6.04375 14.72875 -7 14.75 C-10.1875 14.6875 -10.1875 14.6875 -13.0625 12.9375 C-15.1875 10.6875 -15.1875 10.6875 -15.1875 6.6875 C-8.4375 6.5625 -8.4375 6.5625 -6.1875 7.6875 C-6.084375 6.924375 -5.98125 6.16125 -5.875 5.375 C-4.96779776 1.82866396 -3.97999393 -0.56857056 0 0 Z " fill="#EDE0D3" transform="translate(217.1875,150.3125)"/>
<path d="M0 0 C0.99 0.33 1.98 0.66 3 1 C3.125 4.375 3.125 4.375 3 8 C2.34 8.66 1.68 9.32 1 10 C1.804375 10.391875 2.60875 10.78375 3.4375 11.1875 C6 13 6 13 6.8125 15.6875 C6.874375 16.450625 6.93625 17.21375 7 18 C4.19084526 19.40457737 2.11189466 19.24895157 -1 19 C-3.375 17.6875 -3.375 17.6875 -5 16 C-5 15.01 -5 14.02 -5 13 C-9.455 14.485 -9.455 14.485 -14 16 C-10.68987756 12.68987756 -9.46840411 12.49648935 -5 12 C-5.103125 10.948125 -5.20625 9.89625 -5.3125 8.8125 C-5 5 -5 5 -2.5 2.0625 C-1.675 1.381875 -0.85 0.70125 0 0 Z " fill="#EEE2D9" transform="translate(249,146)"/>
<path d="M0 0 C6.35227273 0.48863636 6.35227273 0.48863636 9.375 2.875 C11 5 11 5 12 8 C14.00016466 9.20882096 14.00016466 9.20882096 16 10 C15.01 10.33 14.02 10.66 13 11 C12.32215008 13.33010909 11.65583207 15.66359824 11 18 C8 20 8 20 5 20 C3.75 13.375 3.75 13.375 6 10 C5.21625 9.566875 4.4325 9.13375 3.625 8.6875 C1 7 1 7 -1 4 C-0.625 1.8125 -0.625 1.8125 0 0 Z " fill="#E5D4C5" transform="translate(212,119)"/>
<path d="M0 0 C2.4375 0.1875 2.4375 0.1875 5 1 C6.375 2.75 6.375 2.75 7 5 C6.625 7.75 6.625 7.75 6 10 C4.68 10.33 3.36 10.66 2 11 C3.32 11.66 4.64 12.32 6 13 C6 13.99 6 14.98 6 16 C3.3125 16.75 3.3125 16.75 0 17 C-2.875 15.0625 -2.875 15.0625 -5 13 C-4.67 11.68 -4.34 10.36 -4 9 C-2.68 8.67 -1.36 8.34 0 8 C-0.2784375 6.2984375 -0.2784375 6.2984375 -0.5625 4.5625 C-0.706875 3.386875 -0.85125 2.21125 -1 1 C-0.67 0.67 -0.34 0.34 0 0 Z " fill="#E9DACC" transform="translate(305,73)"/>
<path d="M0 0 C0.99 0.33 1.98 0.66 3 1 C3 2.65 3 4.3 3 6 C4.98 6 6.96 6 9 6 C9 7.32 9 8.64 9 10 C8.67 10.33 8.34 10.66 8 11 C5.70310483 10.9910102 3.42224061 10.86734539 1.12890625 10.7421875 C0.42636719 10.82726562 -0.27617187 10.91234375 -1 11 C-1.99 12.485 -1.99 12.485 -3 14 C-1.68 14.33 -0.36 14.66 1 15 C1.33 16.65 1.66 18.3 2 20 C-2.75 19.25 -2.75 19.25 -5 17 C-5.99 17.66 -6.98 18.32 -8 19 C-6.89249403 15.57679973 -5.7860841 13.76618494 -3.3125 11.0625 C-0.61086839 8.20238429 -0.61086839 8.20238429 -1.3125 4.75 C-1.6528125 3.38875 -1.6528125 3.38875 -2 2 C-1.34 1.34 -0.68 0.68 0 0 Z " fill="#EDE1D6" transform="translate(248,83)"/>
<path d="M0 0 C1.32 0.33 2.64 0.66 4 1 C3.53293148 3.17965311 3.04200607 4.92587165 1.9375 6.875 C0.71019357 9.65689456 0.86339246 11.99463406 1 15 C-1.86724686 14.42655063 -2.8614515 14.1385485 -5 12 C-5.33 12.66 -5.66 13.32 -6 14 C-6.99 14 -7.98 14 -9 14 C-10.4606285 11.35261084 -11 10.10551666 -11 7 C-10.18595703 6.74476563 -10.18595703 6.74476563 -9.35546875 6.484375 C-3.69466529 4.57974595 -3.69466529 4.57974595 0 0 Z " fill="#F2EAE0" transform="translate(327,147)"/>
<path d="M0 0 C0.99 0 1.98 0 3 0 C3 1.32 3 2.64 3 4 C4.32 4.66 5.64 5.32 7 6 C7 6.99 7 7.98 7 9 C4.69 9.33 2.38 9.66 0 10 C-0.33 11.65 -0.66 13.3 -1 15 C-1.99 15 -2.98 15 -4 15 C-4.020625 13.906875 -4.04125 12.81375 -4.0625 11.6875 C-4.56114043 8.04267663 -4.56114043 8.04267663 -6.625 6.8671875 C-8.78223035 5.93575266 -8.78223035 5.93575266 -12 5 C-11.67 4.34 -11.34 3.68 -11 3 C-9.9275 3.2475 -8.855 3.495 -7.75 3.75 C-3.98087896 4.44165076 -3.98087896 4.44165076 -1.75 2.0625 C-1.1725 1.381875 -0.595 0.70125 0 0 Z " fill="#EADDCF" transform="translate(220,193)"/>
<path d="M0 0 C0.928125 0.165 1.85625 0.33 2.8125 0.5 C6.77528802 1.12161381 9.0586579 0.98533552 13 0 C13 2.97 13 5.94 13 9 C11.35 9 9.7 9 8 9 C7.67 9.66 7.34 10.32 7 11 C4.69 11 2.38 11 0 11 C0.165 10.38125 0.33 9.7625 0.5 9.125 C1.27452574 5.83326559 0.69004263 3.2777025 0 0 Z " fill="#EBDED0" transform="translate(283,116)"/>
<path d="M0 0 C1.32 0.66 2.64 1.32 4 2 C4 3.98 4 5.96 4 8 C4.61875 8.12375 5.2375 8.2475 5.875 8.375 C8 9 8 9 10 11 C10.125 13.625 10.125 13.625 10 16 C7.75 16.3125 7.75 16.3125 5 16 C1 11.89189189 1 11.89189189 1 9 C-0.918125 9.061875 -0.918125 9.061875 -2.875 9.125 C-5.0546875 9.1953125 -5.0546875 9.1953125 -7 9 C-7.66 8.34 -8.32 7.68 -9 7 C-6.36 7 -3.72 7 -1 7 C-1.020625 6.030625 -1.04125 5.06125 -1.0625 4.0625 C-1 1 -1 1 0 0 Z " fill="#EADDCF" transform="translate(320,123)"/>
<path d="M0 0 C0.556875 0.268125 1.11375 0.53625 1.6875 0.8125 C1.8828125 6.8671875 1.8828125 6.8671875 1.6875 8.8125 C-0.72171705 11.22171705 -3.25584509 12.35062156 -6.3125 13.8125 C-6.9725 13.1525 -7.6325 12.4925 -8.3125 11.8125 C-8.23007818 7.44414328 -7.68783953 5.29942696 -5 1.8125 C-2.3125 -0.1875 -2.3125 -0.1875 0 0 Z " fill="#E8D9CC" transform="translate(224.3125,88.1875)"/>
<path d="M0 0 C2.5 1.3125 2.5 1.3125 5 3 C5 3.99 5 4.98 5 6 C6.11375 6.144375 7.2275 6.28875 8.375 6.4375 C12 7 12 7 14 8 C14 9.32 14 10.64 14 12 C7.9453125 12.1953125 7.9453125 12.1953125 6 12 C5.34 11.34 4.68 10.68 4 10 C0.91652174 9.83318891 0.91652174 9.83318891 -2 10 C-1.34 9.01 -0.68 8.02 0 7 C-0.28112064 4.99199544 -0.61067967 2.98985949 -1 1 C-0.67 0.67 -0.34 0.34 0 0 Z " fill="#EDE1D4" transform="translate(242,131)"/>
<path d="M0 0 C0 3 0 3 -1 5 C1.31 5.66 3.62 6.32 6 7 C6 7.33 6 7.66 6 8 C4.35 8 2.7 8 1 8 C1 10.31 1 12.62 1 15 C-0.32 15.33 -1.64 15.66 -3 16 C-5.45622327 13.44143409 -5.99007552 12.09262844 -6.375 8.5 C-5.98618578 4.87106728 -5.59227603 3.4962658 -3 1 C-2.01 0.67 -1.02 0.34 0 0 Z " fill="#EDE2D8" transform="translate(239,179)"/>
<path d="M0 0 C-0.1875 2.875 -0.1875 2.875 -1 6 C-3.5625 7.375 -3.5625 7.375 -6 8 C-6 8.66 -6 9.32 -6 10 C-6.66 10 -7.32 10 -8 10 C-8.33 10.99 -8.66 11.98 -9 13 C-10.65 13.33 -12.3 13.66 -14 14 C-14.33 13.01 -14.66 12.02 -15 11 C-13.75 8.8125 -13.75 8.8125 -12 7 C-11.01 7 -10.02 7 -9 7 C-9.33 5.68 -9.66 4.36 -10 3 C-9.01 3 -8.02 3 -7 3 C-6.525625 2.505 -6.05125 2.01 -5.5625 1.5 C-4 0 -4 0 0 0 Z " fill="#EEE3D9" transform="translate(292,144)"/>
<path d="M0 0 C3 0.25 3 0.25 5 2.25 C5.25 5.25 5.25 5.25 5 8.25 C3 10.25 3 10.25 0 10.5 C-3 10.25 -3 10.25 -5 8.25 C-5.25 5.25 -5.25 5.25 -5 2.25 C-3 0.25 -3 0.25 0 0 Z " fill="#FCFAF8" transform="translate(122,335.75)"/>
<path d="M0 0 C1.875 1.1875 1.875 1.1875 3 3 C2.75546876 6.34192692 2.39456443 7.60543557 0 10 C-3.625 9.625 -3.625 9.625 -7 9 C-8.33157895 3.55263158 -8.33157895 3.55263158 -6.875 1.125 C-4.36737712 -0.37957373 -2.87879197 -0.4318188 0 0 Z " fill="#F7F1E9" transform="translate(331,319)"/>
<path d="M0 0 C0.99 0 1.98 0 3 0 C2.25 5.75 2.25 5.75 0 8 C0.680625 9.010625 1.36125 10.02125 2.0625 11.0625 C4.3257941 14.95377757 4.07511878 17.60993163 3 22 C2.67 22 2.34 22 2 22 C1.81824219 20.96939453 1.81824219 20.96939453 1.6328125 19.91796875 C1.46523437 19.01691406 1.29765625 18.11585938 1.125 17.1875 C0.96257812 16.29417969 0.80015625 15.40085938 0.6328125 14.48046875 C0.08811551 11.77272154 0.08811551 11.77272154 -2 9 C-5.58357241 8.74984127 -5.58357241 8.74984127 -9 9 C-9.66 7.68 -10.32 6.36 -11 5 C-10.67 4.67 -10.34 4.34 -10 4 C-7.66055264 4.28730055 -5.3260857 4.61936779 -3 5 C-2.690625 4.360625 -2.38125 3.72125 -2.0625 3.0625 C-1 1 -1 1 0 0 Z " fill="#ECDFD2" transform="translate(207,169)"/>
<path d="M0 0 C3.375 -0.125 3.375 -0.125 7 0 C9 2 9 2 9.25 5 C9 8 9 8 7 10 C3.375 10.125 3.375 10.125 0 10 C0 6.7 0 3.4 0 0 Z " fill="#FBF8F3" transform="translate(403,319)"/>
<path d="M0 0 C2.1875 0.3125 2.1875 0.3125 4 1 C3.39816251 3.02045442 2.72693904 5.02111039 2 7 C1.01 7.495 1.01 7.495 0 8 C0 9.65 0 11.3 0 13 C-0.99 13.495 -0.99 13.495 -2 14 C-2.33 12.35 -2.66 10.7 -3 9 C-3.94875 9.020625 -4.8975 9.04125 -5.875 9.0625 C-9 9 -9 9 -11 8 C-10.67 6.68 -10.34 5.36 -10 4 C-8.906875 3.896875 -7.81375 3.79375 -6.6875 3.6875 C-2.8550979 2.97298435 -2.47994558 2.59803822 0 0 Z " fill="#ECE0D3" transform="translate(309,106)"/>
<path d="M0 0 C0.33 0.66 0.66 1.32 1 2 C1.9075 1.9175 2.815 1.835 3.75 1.75 C7 2 7 2 9.375 4 C9.91125 4.66 10.4475 5.32 11 6 C7.43665507 8.1727713 5.47520826 9.02376041 1.25 8.8125 C-2 8 -2 8 -4 6 C-3.8125 4 -3.8125 4 -3 2 C-2.01 1.34 -1.02 0.68 0 0 Z " fill="#E6D6C8" transform="translate(207,98)"/>
<path d="M0 0 C5.3820598 -0.35880399 5.3820598 -0.35880399 7.9375 1.125 C9 3 9 3 8.8125 6.125 C8.544375 7.07375 8.27625 8.0225 8 9 C5.29120665 10.35439668 2.99066732 10.06501451 0 10 C0 6.7 0 3.4 0 0 Z " fill="#FAF7F2" transform="translate(186,336)"/>
<path d="M0 0 C0.66 0 1.32 0 2 0 C1.51341266 2.75732824 0.91062728 5.24183206 -0.0625 7.875 C-1.11469966 11.3823322 -1.14567663 14.35808424 -1 18 C0.65 18.33 2.3 18.66 4 19 C3.67 19.99 3.34 20.98 3 22 C0.6875 22.25 0.6875 22.25 -2 22 C-4.80687173 19.67707167 -5.00131504 17.99046596 -5.5 14.375 C-5.33708308 8.97837711 -2.63139884 4.58615227 0 0 Z " fill="#F5EFE5" transform="translate(144,245)"/>
<path d="M0 0 C2.33294775 -0.04241723 4.66702567 -0.04092937 7 0 C8 1 8 1 8.09765625 3.06640625 C8.08605469 3.89011719 8.07445312 4.71382813 8.0625 5.5625 C8.05347656 6.38878906 8.04445312 7.21507812 8.03515625 8.06640625 C8.02355469 8.70449219 8.01195312 9.34257812 8 10 C7.01 10 6.02 10 5 10 C4.67 9.34 4.34 8.68 4 8 C3.67 8.66 3.34 9.32 3 10 C2.01 10 1.02 10 0 10 C0 6.7 0 3.4 0 0 Z " fill="#F8F2EA" transform="translate(156,336)"/>
<path d="M0 0 C2.33294775 -0.04241723 4.66702567 -0.04092937 7 0 C8 1 8 1 8.09765625 3.06640625 C8.08605469 3.89011719 8.07445313 4.71382813 8.0625 5.5625 C8.05347656 6.38878906 8.04445313 7.21507812 8.03515625 8.06640625 C8.02355469 8.70449219 8.01195313 9.34257812 8 10 C7.01 10 6.02 10 5 10 C4.67 9.34 4.34 8.68 4 8 C3.67 8.66 3.34 9.32 3 10 C2.01 10 1.02 10 0 10 C0 6.7 0 3.4 0 0 Z " fill="#F8F2EA" transform="translate(106,319)"/>
<path d="M0 0 C0.99 0 1.98 0 3 0 C3.66 0.99 4.32 1.98 5 3 C5.33 2.01 5.66 1.02 6 0 C6.99 0 7.98 0 9 0 C9 3.3 9 6.6 9 10 C8.01 10 7.02 10 6 10 C5.34 9.01 4.68 8.02 4 7 C3.67 7.99 3.34 8.98 3 10 C2.01 10 1.02 10 0 10 C0 6.7 0 3.4 0 0 Z " fill="#F6EFE5" transform="translate(384,319)"/>
<path d="M0 0 C0.99 0 1.98 0 3 0 C4.6875 2 4.6875 2 6 4 C6.45375 3.34 6.9075 2.68 7.375 2 C7.91125 1.34 8.4475 0.68 9 0 C9.66 0 10.32 0 11 0 C11 3.3 11 6.6 11 10 C10.34 10 9.68 10 9 10 C8.67 8.68 8.34 7.36 8 6 C6.01508358 6.26676204 6.01508358 6.26676204 4 7 C3.67 7.99 3.34 8.98 3 10 C2.01 10 1.02 10 0 10 C0 6.7 0 3.4 0 0 Z " fill="#F7F1E9" transform="translate(258,336)"/>
<path d="M0 0 C0.99 0 1.98 0 3 0 C3.3125 2.25 3.3125 2.25 3 5 C0.34999397 7.88383009 -1.21708895 8.90605067 -5.125 9.375 C-8 9 -8 9 -11 7 C-10.67 6.01 -10.34 5.02 -10 4 C-9.0925 4.0825 -8.185 4.165 -7.25 4.25 C-3.28448506 3.94496039 -2.58670752 2.85429795 0 0 Z " fill="#E8D9C9" transform="translate(306,100)"/>
<path d="M0 0 C1.32 0.66 2.64 1.32 4 2 C4 3.65 4 5.3 4 7 C2.68 7.33 1.36 7.66 0 8 C0 8.66 0 9.32 0 10 C0.66 10 1.32 10 2 10 C2 12.97 2 15.94 2 19 C1.34 19 0.68 19 0 19 C-2.07128547 15.58895449 -2.26961411 12.89464724 -2.25 8.9375 C-2.25515625 7.89464844 -2.2603125 6.85179688 -2.265625 5.77734375 C-2 3 -2 3 0 0 Z " fill="#E8D9CC" transform="translate(327,104)"/>
<path d="M0 0 C1.02440297 3.16653944 0.94742765 5.11588303 0.0390625 8.30078125 C-0.29738281 9.51991211 -0.29738281 9.51991211 -0.640625 10.76367188 C-1.00414062 12.0253418 -1.00414062 12.0253418 -1.375 13.3125 C-2.94815728 18.87473468 -4.33279323 24.25116027 -5 30 C-4.34 30.33 -3.68 30.66 -3 31 C-3.99 31.66 -4.98 32.32 -6 33 C-7.625 31.375 -7.625 31.375 -9 29 C-8.25 26.3125 -8.25 26.3125 -7 23 C-6.69939807 20.61891632 -6.50417433 18.24980191 -6.34375 15.85546875 C-6.2303125 15.24316406 -6.116875 14.63085938 -6 14 C-5.34 13.67 -4.68 13.34 -4 13 C-3.21376109 10.83927773 -2.51798774 8.64509125 -1.875 6.4375 C-1.34519531 4.64119141 -1.34519531 4.64119141 -0.8046875 2.80859375 C-0.40636719 1.41833984 -0.40636719 1.41833984 0 0 Z " fill="#F3EADD" transform="translate(323,87)"/>
<path d="M0 0 C2.875 -0.125 2.875 -0.125 6 0 C8 2 8 2 8.1953125 3.9453125 C8.13020833 5.96354167 8.06510417 7.98177083 8 10 C5 10 5 10 3.3125 8.5 C2.879375 8.005 2.44625 7.51 2 7 C2 7.99 2 8.98 2 10 C1.34 10 0.68 10 0 10 C0 6.7 0 3.4 0 0 Z " fill="#EEE2D1" transform="translate(205,336)"/>
<path d="M0 0 C0 2.31 0 4.62 0 7 C-5.625 10 -5.625 10 -9 10 C-8.51309271 3.54847841 -8.51309271 3.54847841 -6.1875 1.0625 C-4 0 -4 0 0 0 Z " fill="#E9DBCF" transform="translate(343,102)"/>
<path d="M0 0 C0.66 0.66 1.32 1.32 2 2 C1.01 2 0.02 2 -1 2 C-1.268125 3.11375 -1.53625 4.2275 -1.8125 5.375 C-3 9 -3 9 -6 11 C-6.99 11 -7.98 11 -9 11 C-9.33 8.69 -9.66 6.38 -10 4 C-6.77484237 2.26337666 -3.48670834 1.1094072 0 0 Z " fill="#E5D4C3" transform="translate(226,128)"/>
<path d="M0 0 C0.99 0 1.98 0 3 0 C3 2.64 3 5.28 3 8 C3.99 8 4.98 8 6 8 C6 5.36 6 2.72 6 0 C6.99 0 7.98 0 9 0 C9.1953125 6.0546875 9.1953125 6.0546875 9 8 C7 10 7 10 4.5 10.25 C2 10 2 10 0 8 C-0.26991906 5.31160615 -0.08737357 2.70858064 0 0 Z " fill="#F5EEE3" transform="translate(137,336)"/>
<path d="M0 0 C-0.33 1.32 -0.66 2.64 -1 4 C-3.31 4.66 -5.62 5.32 -8 6 C-8 5.34 -8 4.68 -8 4 C-9.32 3.67 -10.64 3.34 -12 3 C-11.67 2.01 -11.34 1.02 -11 0 C-6.62696851 -2.08712867 -4.2911561 -2.27178852 0 0 Z " fill="#E8DACE" transform="translate(352,110)"/>
<path d="M0 0 C0.94875 0.04125 1.8975 0.0825 2.875 0.125 C3.535 1.445 4.195 2.765 4.875 4.125 C3.885 4.125 2.895 4.125 1.875 4.125 C1.875 3.465 1.875 2.805 1.875 2.125 C0.885 2.455 -0.105 2.785 -1.125 3.125 C-1.455 4.775 -1.785 6.425 -2.125 8.125 C-0.805 8.125 0.515 8.125 1.875 8.125 C1.875 7.465 1.875 6.805 1.875 6.125 C2.865 6.125 3.855 6.125 4.875 6.125 C4.215 7.445 3.555 8.765 2.875 10.125 C0 10.25 0 10.25 -3.125 10.125 C-5.125 8.125 -5.125 8.125 -5.375 5.125 C-5.02345647 0.90647769 -4.22997422 0.16919897 0 0 Z " fill="#F9F6F0" transform="translate(263.125,318.875)"/>
<path d="M0 0 C1.32 0.33 2.64 0.66 4 1 C5.046875 3.06640625 5.046875 3.06640625 5.75 5.5625 C5.99234375 6.38878906 6.2346875 7.21507812 6.484375 8.06640625 C6.65453125 8.70449219 6.8246875 9.34257812 7 10 C6.01 10 5.02 10 4 10 C4 9.34 4 8.68 4 8 C2.68 8 1.36 8 0 8 C0 8.66 0 9.32 0 10 C-0.99 10 -1.98 10 -3 10 C-2.01 6.7 -1.02 3.4 0 0 Z " fill="#F8F3ED" transform="translate(242,319)"/>
<path d="M0 0 C0.66 0 1.32 0 2 0 C2 0.66 2 1.32 2 2 C3.32 2.33 4.64 2.66 6 3 C5.01 3.495 5.01 3.495 4 4 C3.71125 4.969375 3.4225 5.93875 3.125 6.9375 C2 10 2 10 -0.125 11.375 C-0.74375 11.58125 -1.3625 11.7875 -2 12 C-3.1171875 10.265625 -3.1171875 10.265625 -4 8 C-3.3203125 5.859375 -3.3203125 5.859375 -2.125 3.75 C-1.73570312 3.04359375 -1.34640625 2.3371875 -0.9453125 1.609375 C-0.63335937 1.07828125 -0.32140625 0.5471875 0 0 Z " fill="#E8D9CD" transform="translate(225,111)"/>
<path d="M0 0 C1.890625 0.21484375 1.890625 0.21484375 4 1 C5.046875 3.06640625 5.046875 3.06640625 5.75 5.5625 C5.99234375 6.38878906 6.2346875 7.21507812 6.484375 8.06640625 C6.65453125 8.70449219 6.8246875 9.34257812 7 10 C6.01 10 5.02 10 4 10 C4 9.34 4 8.68 4 8 C1.69 8.66 -0.62 9.32 -3 10 C-2.39009109 6.44219804 -1.4216319 3.3171411 0 0 Z " fill="#F3E9DD" transform="translate(367,336)"/>
<path d="M0 0 C1.890625 0.21484375 1.890625 0.21484375 4 1 C5.046875 3.06640625 5.046875 3.06640625 5.75 5.5625 C5.99234375 6.38878906 6.2346875 7.21507812 6.484375 8.06640625 C6.65453125 8.70449219 6.8246875 9.34257812 7 10 C6.01 10 5.02 10 4 10 C4 9.34 4 8.68 4 8 C1.69 8.66 -0.62 9.32 -3 10 C-2.39009109 6.44219804 -1.4216319 3.3171411 0 0 Z " fill="#F3E9DD" transform="translate(242,336)"/>
<path d="M0 0 C0.33 0.99 0.66 1.98 1 3 C1.65484375 3.29648438 2.3096875 3.59296875 2.984375 3.8984375 C5 5 5 5 5.828125 7.1640625 C5.96734375 7.97617188 6.1065625 8.78828125 6.25 9.625 C6.39953125 10.44226563 6.5490625 11.25953125 6.703125 12.1015625 C6.80109375 12.72804687 6.8990625 13.35453125 7 14 C4.28754956 13.12028634 2.28962343 12.25100697 0.125 10.375 C-1.60833457 6.71573812 -0.72225463 3.93957069 0 0 Z " fill="#E7D8CB" transform="translate(287,194)"/>
<path d="M0 0 C2.875 -0.125 2.875 -0.125 6 0 C6.66 0.66 7.32 1.32 8 2 C7.625 4.125 7.625 4.125 7 6 C5.35 6.33 3.7 6.66 2 7 C2 7.99 2 8.98 2 10 C1.34 10 0.68 10 0 10 C0 6.7 0 3.4 0 0 Z " fill="#F5EDE3" transform="translate(206,319)"/>
<path d="M0 0 C2.875 -0.125 2.875 -0.125 6 0 C6.66 0.66 7.32 1.32 8 2 C7.625 4.125 7.625 4.125 7 6 C5.35 6.33 3.7 6.66 2 7 C2 7.99 2 8.98 2 10 C1.34 10 0.68 10 0 10 C0 6.7 0 3.4 0 0 Z " fill="#F5EDE3" transform="translate(72,319)"/>
<path d="M0 0 C2.3125 0.125 2.3125 0.125 5 1 C7.36101949 4.66365093 8 6.59781468 8 11 C4.10924546 9.70308182 1.47537257 8.33223231 -1 5 C-0.75 2.25 -0.75 2.25 0 0 Z " fill="#E7D8CB" transform="translate(270,131)"/>
<path d="M0 0 C3 1 3 1 5 4 C5.33 2.68 5.66 1.36 6 0 C6.66 0 7.32 0 8 0 C8 3.3 8 6.6 8 10 C4 8 4 8 3 6 C2.67 7.32 2.34 8.64 2 10 C1.34 10 0.68 10 0 10 C0 6.7 0 3.4 0 0 Z " fill="#FCFAF7" transform="translate(346,336)"/>
<path d="M0 0 C3.625 0.375 3.625 0.375 7 1 C7.33 1.99 7.66 2.98 8 4 C5.69 3.67 3.38 3.34 1 3 C1 4.32 1 5.64 1 7 C4.465 6.505 4.465 6.505 8 6 C7.34 7.32 6.68 8.64 6 10 C3.125 10.125 3.125 10.125 0 10 C-2 8 -2 8 -2.25 5 C-2 2 -2 2 0 0 Z " fill="#F8F4ED" transform="translate(159,319)"/>
<path d="M0 0 C2.64 0.33 5.28 0.66 8 1 C8.33 2.65 8.66 4.3 9 6 C2.6 7.35384615 2.6 7.35384615 -0.4375 5.5625 C-0.953125 5.046875 -1.46875 4.53125 -2 4 C-1.34 2.68 -0.68 1.36 0 0 Z " fill="#E5D5C6" transform="translate(214,107)"/>
<path d="M0 0 C0.99 0 1.98 0 3 0 C6 6.625 6 6.625 6 10 C5.34 10 4.68 10 4 10 C4 9.34 4 8.68 4 8 C2.35 8 0.7 8 -1 8 C-1 8.66 -1 9.32 -1 10 C-1.66 10 -2.32 10 -3 10 C-2.49287967 6.28111761 -1.88391785 3.26545761 0 0 Z " fill="#F3EADE" transform="translate(311,336)"/>
<path d="M0 0 C2.31 0 4.62 0 7 0 C7 0.66 7 1.32 7 2 C5.68 2 4.36 2 3 2 C3 2.66 3 3.32 3 4 C4.32 4 5.64 4 7 4 C7 4.66 7 5.32 7 6 C5.68 6 4.36 6 3 6 C3 6.66 3 7.32 3 8 C4.32 8 5.64 8 7 8 C7 8.66 7 9.32 7 10 C4.69 10 2.38 10 0 10 C0 6.7 0 3.4 0 0 Z " fill="#F8F3EC" transform="translate(140,319)"/>
<path d="M0 0 C2.31 0 4.62 0 7 0 C7 0.66 7 1.32 7 2 C5.68 2 4.36 2 3 2 C3 2.66 3 3.32 3 4 C4.32 4 5.64 4 7 4 C7 4.66 7 5.32 7 6 C5.68 6 4.36 6 3 6 C3 6.66 3 7.32 3 8 C4.32 8 5.64 8 7 8 C7 8.66 7 9.32 7 10 C4.69 10 2.38 10 0 10 C0 6.7 0 3.4 0 0 Z " fill="#F8F3EC" transform="translate(89,319)"/>
<path d="M0 0 C0.66 0.33 1.32 0.66 2 1 C-11.03606557 18.67868852 -11.03606557 18.67868852 -18 21 C-18 20.01 -18 19.02 -18 18 C-16.58422927 17.03098359 -15.16128981 16.07054435 -13.70166016 15.16894531 C-10.77010301 13.15512958 -8.53599051 10.52309218 -6.1875 7.875 C-5.69830078 7.33746094 -5.20910156 6.79992187 -4.70507812 6.24609375 C-2.05559257 3.33407959 -2.05559257 3.33407959 0 0 Z " fill="#F7F1E9" transform="translate(382,246)"/>
<path d="M0 0 C6.44807122 0.60830861 6.44807122 0.60830861 8.9375 2.375 C10 4 10 4 10 7 C7.3125 7.3125 7.3125 7.3125 4 7 C1.125 4.5 1.125 4.5 -1 2 C-0.67 1.34 -0.34 0.68 0 0 Z " fill="#E7D8CC" transform="translate(203,158)"/>
<path d="M0 0 C7.75 0.75 7.75 0.75 10 3 C9.625 5.625 9.625 5.625 9 8 C5.12793601 7.42636089 2.81534937 5.65894107 0 3 C0 2.01 0 1.02 0 0 Z " fill="#E7D7CB" transform="translate(294,199)"/>
<path d="M0 0 C3.4826218 -0.39801392 4.80799236 -0.12373826 7.8125 1.8125 C10 4 10 4 10 7 C6.70985003 7.22432841 4.57722754 7.30380397 1.625 5.75 C0 4 0 4 0 0 Z " fill="#E5D5C8" transform="translate(334,113)"/>
<path d="M0 0 C0.99 0.33 1.98 0.66 3 1 C2.25 7.75 2.25 7.75 0 10 C-2.625 10.125 -2.625 10.125 -5 10 C-4.49701212 5.59885603 -2.91227269 3.28804981 0 0 Z " fill="#E6D7CB" transform="translate(317,76)"/>
<path d="M0 0 C0.99 0.33 1.98 0.66 3 1 C3.3125 4.3125 3.3125 4.3125 3 8 C0.60259082 9.95578117 -0.87586608 11 -4 11 C-4.40982001 7.41407493 -4.17446254 6.239886 -2 3.25 C-1.34 2.5075 -0.68 1.765 0 1 C0 0.67 0 0.34 0 0 Z " fill="#E6D6C9" transform="translate(249,146)"/>
<path d="M0 0 C2.31 0 4.62 0 7 0 C7 0.66 7 1.32 7 2 C5.68 2 4.36 2 3 2 C3 2.66 3 3.32 3 4 C4.32 4.33 5.64 4.66 7 5 C7 5.66 7 6.32 7 7 C5.68 7 4.36 7 3 7 C3 7.99 3 8.98 3 10 C2.01 10 1.02 10 0 10 C0 6.7 0 3.4 0 0 Z " fill="#F2E8DA" transform="translate(124,319)"/>
<path d="M0 0 C0.66 0.66 1.32 1.32 2 2 C1.44570313 2.4846875 0.89140625 2.969375 0.3203125 3.46875 C-4.70381055 8.11740478 -7.02729278 11.19104943 -8 18 C-9.625 16.3125 -9.625 16.3125 -11 14 C-10.13070218 8.78421311 -5.61006577 4.644123 -2 1 C-1.34 0.67 -0.68 0.34 0 0 Z " fill="#F4ECE0" transform="translate(41,222)"/>
<path d="M0 0 C4.67461851 -0.32613618 7.16674383 0.29417212 11 3 C10.67 3.99 10.34 4.98 10 6 C7.8125 6.8125 7.8125 6.8125 5 7 C2.1875 4.6875 2.1875 4.6875 0 2 C0 1.34 0 0.68 0 0 Z " fill="#E6D6C9" transform="translate(269,142)"/>
<path d="M0 0 C0.66 0.33 1.32 0.66 2 1 C1.01 2.32 0.02 3.64 -1 5 C0.32 5.33 1.64 5.66 3 6 C3.33 7.65 3.66 9.3 4 11 C-0.75 10.25 -0.75 10.25 -3 8 C-3.99 8.66 -4.98 9.32 -6 10 C-4.6302836 6.00499382 -2.74277578 3.19990508 0 0 Z " fill="#EFE4D9" transform="translate(246,92)"/>
<path d="M0 0 C2.31 0 4.62 0 7 0 C7 0.66 7 1.32 7 2 C5.35 2 3.7 2 2 2 C2 2.66 2 3.32 2 4 C3.32 4 4.64 4 6 4 C6 4.66 6 5.32 6 6 C4.68 6 3.36 6 2 6 C2 6.66 2 7.32 2 8 C3.65 8 5.3 8 7 8 C7 8.66 7 9.32 7 10 C4.69 10 2.38 10 0 10 C0 6.7 0 3.4 0 0 Z " fill="#FCF9F7" transform="translate(223,336)"/>
<path d="M0 0 C2.31 0 4.62 0 7 0 C7 0.66 7 1.32 7 2 C5.35 2 3.7 2 2 2 C2 2.66 2 3.32 2 4 C3.32 4 4.64 4 6 4 C6 4.66 6 5.32 6 6 C4.68 6 3.36 6 2 6 C2 6.66 2 7.32 2 8 C3.65 8 5.3 8 7 8 C7 8.66 7 9.32 7 10 C4.69 10 2.38 10 0 10 C0 6.7 0 3.4 0 0 Z " fill="#FCF9F7" transform="translate(278,319)"/>
<path d="M0 0 C0 0.66 0 1.32 0 2 C-1.07378906 2.39832031 -2.14757812 2.79664063 -3.25390625 3.20703125 C-4.69013758 3.74209782 -6.12633362 4.27725914 -7.5625 4.8125 C-8.26697266 5.07353516 -8.97144531 5.33457031 -9.69726562 5.60351562 C-14.1906787 7.28078041 -18.60589494 9.07721815 -23 11 C-23.66 10.34 -24.32 9.68 -25 9 C-21.91869487 7.68270177 -18.83462237 6.3720095 -15.75 5.0625 C-14.87730469 4.68931641 -14.00460938 4.31613281 -13.10546875 3.93164062 C-12.26113281 3.57392578 -11.41679688 3.21621094 -10.546875 2.84765625 C-9.77182617 2.51773682 -8.99677734 2.18781738 -8.19824219 1.84790039 C-5.44368345 0.78541899 -2.96201123 0 0 0 Z " fill="#F4ECE0" transform="translate(97,245)"/>
<path d="M0 0 C0.66 0 1.32 0 2 0 C2.33 2.31 2.66 4.62 3 7 C3.66 7 4.32 7 5 7 C5.33 4.69 5.66 2.38 6 0 C6.66 0 7.32 0 8 0 C8.02689216 1.47906892 8.04634621 2.95827483 8.0625 4.4375 C8.07410156 5.26121094 8.08570313 6.08492188 8.09765625 6.93359375 C8 9 8 9 7 10 C5.00041636 10.04080783 2.99954746 10.04254356 1 10 C-0.60725635 6.78548731 -0.05748185 3.56387464 0 0 Z " fill="#FCFAF7" transform="translate(327,336)"/>
<path d="M0 0 C2.31 0 4.62 0 7 0 C7 0.66 7 1.32 7 2 C5.68 2 4.36 2 3 2 C3 2.66 3 3.32 3 4 C3.99 4 4.98 4 6 4 C6 4.99 6 5.98 6 7 C5.01 7 4.02 7 3 7 C3 7.99 3 8.98 3 10 C2.01 10 1.02 10 0 10 C0 6.7 0 3.4 0 0 Z " fill="#F5EEE4" transform="translate(355,319)"/>
<path d="M0 0 C0.99 0.33 1.98 0.66 3 1 C3.33 3.31 3.66 5.62 4 8 C1.69 9.32 -0.62 10.64 -3 12 C-2.88601335 10.37419034 -2.75844341 8.74932843 -2.625 7.125 C-2.55539063 6.22007812 -2.48578125 5.31515625 -2.4140625 4.3828125 C-2 2 -2 2 0 0 Z " fill="#CEA976" transform="translate(239,131)"/>
<path d="M0 0 C1.65 0 3.3 0 5 0 C5.33 0.99 5.66 1.98 6 3 C4.35 2.67 2.7 2.34 1 2 C1 2.66 1 3.32 1 4 C2.65 4.33 4.3 4.66 6 5 C5.67 6.65 5.34 8.3 5 10 C3.35 10 1.7 10 0 10 C-0.33 9.01 -0.66 8.02 -1 7 C1.475 7.495 1.475 7.495 4 8 C4 7.34 4 6.68 4 6 C2.35 5.67 0.7 5.34 -1 5 C-0.67 3.35 -0.34 1.7 0 0 Z " fill="#FBF8F4" transform="translate(292,336)"/>
<path d="M0 0 C2.22189824 2.22189824 2.92598892 4.08482708 4 7 C4.66 5.35 5.32 3.7 6 2 C7.31223496 5.93670488 6.24296256 8.12488144 5 12 C4.01 11.67 3.02 11.34 2 11 C2 14.3 2 17.6 2 21 C0 19 0 19 -0.22705078 17.02880859 C-0.21657715 16.24328613 -0.20610352 15.45776367 -0.1953125 14.6484375 C-0.18886719 13.79765625 -0.18242187 12.946875 -0.17578125 12.0703125 C-0.15902344 11.18085937 -0.14226562 10.29140625 -0.125 9.375 C-0.11597656 8.4778125 -0.10695312 7.580625 -0.09765625 6.65625 C-0.0740497 4.43723414 -0.0411231 2.21874923 0 0 Z " fill="#F0E5D5" transform="translate(233,100)"/>
<path d="M0 0 C0.99 0 1.98 0 3 0 C3.66 0.66 4.32 1.32 5 2 C5.33 1.34 5.66 0.68 6 0 C6.99 0 7.98 0 9 0 C8.01 3.3 7.02 6.6 6 10 C5.01 10 4.02 10 3 10 C1.87119943 6.68885166 0.78697325 3.41021743 0 0 Z " fill="#F7F1E8" transform="translate(99,336)"/>
<path d="M0 0 C2 3 2 3 3 5 C5.32156597 5.40729228 7.6568787 5.74438677 10 6 C10 6.66 10 7.32 10 8 C6.98675805 9.50662097 4.31713623 9.17770373 1 9 C-1 7 -1 7 -1.1875 3.9375 C-1 1 -1 1 0 0 Z " fill="#FDFBF9" transform="translate(160,258)"/>
<path d="M0 0 C0.33 0 0.66 0 1 0 C1.32873343 6.02677947 0.8874859 11.56962527 -2 17 C-2.99 17.33 -3.98 17.66 -5 18 C-3.75971762 11.82777121 -2.10396411 5.93317878 0 0 Z " fill="#F8F3EC" transform="translate(356,198)"/>
<path d="M0 0 C-1.875 5.75 -1.875 5.75 -3 8 C-3.99 8 -4.98 8 -6 8 C-7.4606285 5.35261084 -8 4.10551666 -8 1 C-2.25 -1.125 -2.25 -1.125 0 0 Z " fill="#E6D4C0" transform="translate(324,153)"/>
<path d="M0 0 C2.97 0 5.94 0 9 0 C9 0.66 9 1.32 9 2 C8.01 2 7.02 2 6 2 C6 4.64 6 7.28 6 10 C5.01 10 4.02 10 3 10 C3 7.36 3 4.72 3 2 C2.01 2 1.02 2 0 2 C0 1.34 0 0.68 0 0 Z " fill="#F7F1E9" transform="translate(176,319)"/>
<path d="M0 0 C3.26954202 0.56371414 4.82575883 1.49962266 7 4 C6.01 4 5.02 4 4 4 C3.67 5.65 3.34 7.3 3 9 C2.01 9 1.02 9 0 9 C-1.125 2.25 -1.125 2.25 0 0 Z " fill="#EFE5DB" transform="translate(216,199)"/>
<path d="M0 0 C3.32820054 -0.22692276 5.41801336 -0.32162419 8.375 1.3125 C10 3 10 3 10 6 C3.52443609 5.38909774 3.52443609 5.38909774 1.0625 3.5625 C0 2 0 2 0 0 Z " fill="#E5D4C8" transform="translate(255,122)"/>
<path d="M0 0 C6.75 0.875 6.75 0.875 9 2 C9 3.32 9 4.64 9 6 C2.25 5.25 2.25 5.25 0 3 C0 2.01 0 1.02 0 0 Z " fill="#E7D8CC" transform="translate(247,137)"/>
<path d="M0 0 C2.0625 1.625 2.0625 1.625 4 4 C3.75 7.25 3.75 7.25 3 10 C2.01 10 1.02 10 0 10 C-2.29013653 6.5647952 -2.17842973 5.014669 -2 1 C-1.34 0.67 -0.68 0.34 0 0 Z " fill="#E4D3C6" transform="translate(308,73)"/>
<path d="M0 0 C7.42857143 -0.28571429 7.42857143 -0.28571429 11 2 C7.86650268 3.04449911 7.01031744 2.93423645 4 2 C5.22934015 5.68802044 6.93859378 6.72356973 10 9 C9.401875 8.79375 8.80375 8.5875 8.1875 8.375 C5.71549154 7.69328085 5.71549154 7.69328085 3 10 C2.51171875 7.98177083 2.0234375 5.96354167 1.53515625 3.9453125 C1.05153008 1.9414343 1.05153008 1.9414343 0 0 Z " fill="#F7F2ED" transform="translate(290,197)"/>
<path d="M0 0 C2.15234375 0.3671875 2.15234375 0.3671875 4 1 C-0.26041226 4.76354036 -4.51848911 8.49881962 -9 12 C-9.33 11.34 -9.66 10.68 -10 10 C-8.33333333 8.33333333 -6.66666667 6.66666667 -5 5 C-4.154375 4.05125 -3.30875 3.1025 -2.4375 2.125 C-1.633125 1.42375 -0.82875 0.7225 0 0 Z " fill="#F4EDE2" transform="translate(442,266)"/>
<path d="M0 0 C0.99 0 1.98 0 3 0 C3 2.64 3 5.28 3 8 C4.32 8 5.64 8 7 8 C7 8.66 7 9.32 7 10 C4.69 10 2.38 10 0 10 C0 6.7 0 3.4 0 0 Z " fill="#F6F0E7" transform="translate(223,319)"/>
<path d="M0 0 C0.33 0 0.66 0 1 0 C1.33 2.64 1.66 5.28 2 8 C3.65 8.33 5.3 8.66 7 9 C6.67 9.99 6.34 10.98 6 12 C3.625 12.125 3.625 12.125 1 12 C-1 10 -1 10 -1.23046875 7.87109375 C-1.20919922 6.66646484 -1.20919922 6.66646484 -1.1875 5.4375 C-1.18105469 4.63183594 -1.17460937 3.82617188 -1.16796875 2.99609375 C-1 1 -1 1 0 0 Z " fill="#FDFBF9" transform="translate(141,255)"/>
<path d="M0 0 C0.4125 0.433125 0.825 0.86625 1.25 1.3125 C3.06054505 3.05838272 4.96474232 4.52619271 7 6 C6.67 6.99 6.34 7.98 6 9 C5.46375 8.360625 4.9275 7.72125 4.375 7.0625 C1.55632807 4.61470596 -0.33860732 4.33285388 -4 4 C-1.525 6.97 -1.525 6.97 1 10 C-1.3125 9.875 -1.3125 9.875 -4 9 C-5.8125 5.9375 -5.8125 5.9375 -7 3 C-5.5459375 2.5359375 -5.5459375 2.5359375 -4.0625 2.0625 C-1.15934208 1.30476658 -1.15934208 1.30476658 0 0 Z " fill="#F5EEE6" transform="translate(259,118)"/>
<path d="M0 0 C2.31 0 4.62 0 7 0 C6.34 2.31 5.68 4.62 5 7 C3.68 6.67 2.36 6.34 1 6 C0.67 4.02 0.34 2.04 0 0 Z " fill="#E9DACB" transform="translate(304,177)"/>
<path d="M0 0 C-0.33 1.98 -0.66 3.96 -1 6 C-2.65 6.33 -4.3 6.66 -6 7 C-6.6875 5.1875 -6.6875 5.1875 -7 3 C-4.8243318 -0.20624788 -4.07796486 0 0 0 Z " fill="#E8D9CB" transform="translate(290,185)"/>
<path d="M0 0 C0.66 0 1.32 0 2 0 C2.268125 0.969375 2.53625 1.93875 2.8125 2.9375 C3.204375 3.948125 3.59625 4.95875 4 6 C4.99 6.33 5.98 6.66 7 7 C7 7.66 7 8.32 7 9 C4.125 9.1875 4.125 9.1875 1 9 C-1.14809171 5.77786243 -1.29386153 4.72224599 -1 1 C-0.67 0.67 -0.34 0.34 0 0 Z " fill="#FCF9F6" transform="translate(357,258)"/>
<path d="M0 0 C1.32 0 2.64 0 4 0 C3.8125 2.875 3.8125 2.875 3 6 C0.4375 7.375 0.4375 7.375 -2 8 C-1.125 1.125 -1.125 1.125 0 0 Z " fill="#E7D8C9" transform="translate(288,144)"/>
<path d="M0 0 C2.97 0 5.94 0 9 0 C9 0.66 9 1.32 9 2 C8.01 2 7.02 2 6 2 C6 4.64 6 7.28 6 10 C5.34 10 4.68 10 4 10 C4 7.36 4 4.72 4 2 C2.68 2 1.36 2 0 2 C0 1.34 0 0.68 0 0 Z " fill="#FCF9F6" transform="translate(305,319)"/>
<path d="M0 0 C3.26189156 0.5623951 4.91134848 1.4140505 7 4 C7.33 4.99 7.66 5.98 8 7 C8.66 7.66 9.32 8.32 10 9 C9.071875 9.268125 8.14375 9.53625 7.1875 9.8125 C4.23759634 10.91148371 2.94384814 11.62418561 1 14 C1.375 11.5625 1.375 11.5625 2 9 C2.66 8.67 3.32 8.34 4 8 C3.50168276 4.31245243 2.89932357 2.39509338 0 0 Z " fill="#F6EFE8" transform="translate(216,120)"/>
<path d="M0 0 C2.29013653 3.4352048 2.17842973 4.985331 2 9 C0.68 9 -0.64 9 -2 9 C-3.45169732 6.09660535 -2.72348441 4.09125158 -2 1 C-1.34 0.67 -0.68 0.34 0 0 Z " fill="#E9DBCF" transform="translate(250,123)"/>
<path d="M0 0 C0.99 0 1.98 0 3 0 C3.125 2.375 3.125 2.375 3 5 C2.34 5.66 1.68 6.32 1 7 C-1.625 6.625 -1.625 6.625 -4 6 C-1.125 1.125 -1.125 1.125 0 0 Z " fill="#EBDFD3" transform="translate(306,100)"/>
<path d="M0 0 C0.3403125 0.928125 0.3403125 0.928125 0.6875 1.875 C2.37929835 4.61410209 3.99244161 5.05024472 7 6 C6.67 6.99 6.34 7.98 6 9 C3.625 9.125 3.625 9.125 1 9 C-1 7 -1 7 -1.1875 3.9375 C-1 1 -1 1 0 0 Z " fill="#FCFAF8" transform="translate(254,258)"/>
<path d="M0 0 C0.3403125 0.928125 0.3403125 0.928125 0.6875 1.875 C2.37929835 4.61410209 3.99244161 5.05024472 7 6 C6.67 6.99 6.34 7.98 6 9 C3.625 9.125 3.625 9.125 1 9 C-1 7 -1 7 -1.1875 3.9375 C-1 1 -1 1 0 0 Z " fill="#FCFAF8" transform="translate(109,258)"/>
<path d="M0 0 C0.86625 0.3403125 0.86625 0.3403125 1.75 0.6875 C1.75 2.0075 1.75 3.3275 1.75 4.6875 C0.80125 4.64625 -0.1475 4.605 -1.125 4.5625 C-4.35244856 4.33776182 -4.35244856 4.33776182 -6.25 6.6875 C-6.25 2.6875 -6.25 2.6875 -4.5 0.875 C-2.25 -0.3125 -2.25 -0.3125 0 0 Z " fill="#F6EFE6" transform="translate(250.25,243.3125)"/>
<path d="M0 0 C0.86625 0.3403125 0.86625 0.3403125 1.75 0.6875 C1.75 2.0075 1.75 3.3275 1.75 4.6875 C0.80125 4.64625 -0.1475 4.605 -1.125 4.5625 C-4.35244856 4.33776182 -4.35244856 4.33776182 -6.25 6.6875 C-6.25 2.6875 -6.25 2.6875 -4.5 0.875 C-2.25 -0.3125 -2.25 -0.3125 0 0 Z " fill="#F6EFE6" transform="translate(105.25,243.3125)"/>
<path d="M0 0 C-0.3125 2.375 -0.3125 2.375 -1 5 C-4 7 -4 7 -7 7 C-7 5.68 -7 4.36 -7 3 C-4.49515403 0.58152803 -3.53986194 0 0 0 Z " fill="#E9DACD" transform="translate(284,194)"/>
<path d="M0 0 C0.33 0.99 0.66 1.98 1 3 C1.66 3 2.32 3 3 3 C3.33 3.99 3.66 4.98 4 6 C3.071875 5.95875 2.14375 5.9175 1.1875 5.875 C-2.15809719 5.72863661 -2.15809719 5.72863661 -5 8 C-4.34 6.35 -3.68 4.7 -3 3 C-5.64 3 -8.28 3 -11 3 C-11 2.67 -11 2.34 -11 2 C-7.37 2 -3.74 2 0 2 C0 1.34 0 0.68 0 0 Z " fill="#F3EAE0" transform="translate(283,189)"/>
<path d="M0 0 C0.391875 0.474375 0.78375 0.94875 1.1875 1.4375 C3.40808374 3.35179633 5.13375709 3.61266988 8 4 C7.01 5.485 7.01 5.485 6 7 C3.5 7.3125 3.5 7.3125 1 7 C0.34 6.34 -0.32 5.68 -1 5 C-0.625 2.375 -0.625 2.375 0 0 Z " fill="#FBF9F5" transform="translate(396,260)"/>
<path d="M0 0 C0.99 0.33 1.98 0.66 3 1 C2.3125 3.4375 2.3125 3.4375 1 6 C-1.625 6.8125 -1.625 6.8125 -4 7 C-3.6875 4.625 -3.6875 4.625 -3 2 C-2.01 1.34 -1.02 0.68 0 0 Z " fill="#EBDDD1" transform="translate(320,145)"/>
<path d="M0 0 C0.33 0.66 0.66 1.32 1 2 C-0.47169811 5.73584906 -0.47169811 5.73584906 -3 7 C-3 8.65 -3 10.3 -3 12 C-3.99 12.495 -3.99 12.495 -5 13 C-5.98410592 9.24250465 -6.14124787 7.37430684 -4.75 3.6875 C-3 1 -3 1 0 0 Z " fill="#E8D9C9" transform="translate(312,107)"/>
<path d="M0 0 C-0.33 0.99 -0.66 1.98 -1 3 C-3.31 3.33 -5.62 3.66 -8 4 C-8.33 2.68 -8.66 1.36 -9 0 C-5.93109813 -1.53445094 -3.29905734 -0.54984289 0 0 Z " fill="#E9DACB" transform="translate(316,92)"/>
<path d="M0 0 C0.99 0.33 1.98 0.66 3 1 C2.67 3.97 2.34 6.94 2 10 C1.34 10 0.68 10 0 10 C-1.58538318 7.48203847 -2.0373656 6.32134414 -1.6875 3.3125 C-1 1 -1 1 0 0 Z " fill="#E8D9C9" transform="translate(248,83)"/>
<path d="M0 0 C1.9078584 3.1749094 2.1609041 5.10585211 1.625 8.75 C1.51414063 9.54921875 1.40328125 10.3484375 1.2890625 11.171875 C1.19367188 11.77515625 1.09828125 12.3784375 1 13 C0.34 12.34 -0.32 11.68 -1 11 C-1.33 12.65 -1.66 14.3 -2 16 C-2.33 16 -2.66 16 -3 16 C-2.52013969 10.43109483 -1.70084819 5.32932432 0 0 Z " fill="#EEE2D1" transform="translate(161,248)"/>
<path d="M0 0 C0.99 0 1.98 0 3 0 C4.4606285 2.64738916 5 3.89448334 5 7 C3.68 7.33 2.36 7.66 1 8 C0.34 5.69 -0.32 3.38 -1 1 C-0.67 0.67 -0.34 0.34 0 0 Z " fill="#E6D5C7" transform="translate(246,114)"/>
<path d="M0 0 C2.0625 0.4375 2.0625 0.4375 4 1 C3.67 2.65 3.34 4.3 3 6 C1.35 5.67 -0.3 5.34 -2 5 C-1.125 1.125 -1.125 1.125 0 0 Z " fill="#D0AC7B" transform="translate(121,338)"/>
<path d="M0 0 C1.98 0 3.96 0 6 0 C5.67 0.66 5.34 1.32 5 2 C4.01 2 3.02 2 2 2 C2.66 3.65 3.32 5.3 4 7 C3.34 7 2.68 7 2 7 C2 7.99 2 8.98 2 10 C1.34 10 0.68 10 0 10 C0 6.7 0 3.4 0 0 Z " fill="#FEFDFC" transform="translate(205,336)"/>
<path d="M0 0 C0.99 0 1.98 0 3 0 C3 3.3 3 6.6 3 10 C2.01 10 1.02 10 0 10 C0 6.7 0 3.4 0 0 Z " fill="#F3EADE" transform="translate(371,319)"/>
<path d="M0 0 C0.94875 0.04125 1.8975 0.0825 2.875 0.125 C3.535 1.445 4.195 2.765 4.875 4.125 C3.885 4.125 2.895 4.125 1.875 4.125 C1.875 3.465 1.875 2.805 1.875 2.125 C-1.23832248 2.79368314 -1.23832248 2.79368314 -2.3125 5.1875 C-2.580625 5.826875 -2.84875 6.46625 -3.125 7.125 C-3.785 5.475 -4.445 3.825 -5.125 2.125 C-3.125 0.125 -3.125 0.125 0 0 Z " fill="#F4ECE0" transform="translate(263.125,318.875)"/>
<path d="M0 0 C2.0625 0.4375 2.0625 0.4375 4 1 C3.67 2.32 3.34 3.64 3 5 C1.35 5.33 -0.3 5.66 -2 6 C-1.125 1.125 -1.125 1.125 0 0 Z " fill="#E8D8C8" transform="translate(327,147)"/>
<path d="M0 0 C2.475 0.495 2.475 0.495 5 1 C4.67 2.65 4.34 4.3 4 6 C2.68 6 1.36 6 0 6 C0 4.02 0 2.04 0 0 Z " fill="#D5B589" transform="translate(405,321)"/>
<path d="M0 0 C0.99 0.33 1.98 0.66 3 1 C2.07161713 2.31896465 1.13194268 3.62998689 0.1875 4.9375 C-0.59560547 6.03384766 -0.59560547 6.03384766 -1.39453125 7.15234375 C-3 9 -3 9 -6 10 C-5.49477778 5.62140745 -2.82172778 3.18348776 0 0 Z " fill="#F7F0E8" transform="translate(154,256)"/>
<path d="M0 0 C1.32 0.66 2.64 1.32 4 2 C4 3.65 4 5.3 4 7 C2.68 7.33 1.36 7.66 0 8 C-1.09658936 4.71023192 -0.79953138 3.28696233 0 0 Z " fill="#E9DACC" transform="translate(310,153)"/>
<path d="M0 0 C0.66 0 1.32 0 2 0 C2 2.97 2 5.94 2 9 C1.01 9 0.02 9 -1 9 C-2.1875 7.3125 -2.1875 7.3125 -3 5 C-1.75 2.25 -1.75 2.25 0 0 Z " fill="#F8F4ED" transform="translate(162,337)"/>
<path d="M0 0 C0.66 0 1.32 0 2 0 C2 2.97 2 5.94 2 9 C1.01 9 0.02 9 -1 9 C-2.1875 7.3125 -2.1875 7.3125 -3 5 C-1.75 2.25 -1.75 2.25 0 0 Z " fill="#F8F4ED" transform="translate(112,320)"/>
<path d="M0 0 C1.98 0.495 1.98 0.495 4 1 C3.67 2.65 3.34 4.3 3 6 C1.68 5.67 0.36 5.34 -1 5 C-0.67 3.35 -0.34 1.7 0 0 Z " fill="#CCA670" transform="translate(327,321)"/>
<path d="M0 0 C0 3.96130371 -1.34877125 4.82914401 -4 7.6875 C-4.7425 8.49574219 -5.485 9.30398437 -6.25 10.13671875 C-6.8275 10.75160156 -7.405 11.36648438 -8 12 C-8.66 11.34 -9.32 10.68 -10 10 C-6.7 6.7 -3.4 3.4 0 0 Z " fill="#F5EDE3" transform="translate(427,245)"/>
<path d="M0 0 C0.66 0.33 1.32 0.66 2 1 C2 1.66 2 2.32 2 3 C0.21289414 3.86366822 -1.5798465 4.71568594 -3.375 5.5625 C-4.37273437 6.03816406 -5.37046875 6.51382813 -6.3984375 7.00390625 C-7.25695312 7.33261719 -8.11546875 7.66132813 -9 8 C-9.66 7.67 -10.32 7.34 -11 7 C-9.21475351 5.80286983 -7.4215972 4.61752721 -5.625 3.4375 C-4.62726563 2.77621094 -3.62953125 2.11492187 -2.6015625 1.43359375 C-1.74304688 0.96050781 -0.88453125 0.48742187 0 0 Z " fill="#F5EEE3" transform="translate(183,211)"/>
<path d="M0 0 C1.32 0 2.64 0 4 0 C3.67 1.65 3.34 3.3 3 5 C1.35 5 -0.3 5 -2 5 C-1.125 1.125 -1.125 1.125 0 0 Z " fill="#E9DCCF" transform="translate(308,170)"/>
<path d="M0 0 C0.66 0.33 1.32 0.66 2 1 C1.814375 1.928125 1.62875 2.85625 1.4375 3.8125 C0.75876119 7.01343771 0.75876119 7.01343771 2 10 C0.68 9.34 -0.64 8.68 -2 8 C-2.125 5.125 -2.125 5.125 -2 2 C-1.34 1.34 -0.68 0.68 0 0 Z " fill="#F7F1E9" transform="translate(119,336)"/>
<path d="M0 0 C0.66 0 1.32 0 2 0 C2.33 1.98 2.66 3.96 3 6 C2.34 6 1.68 6 1 6 C1 5.34 1 4.68 1 4 C-0.65 4 -2.3 4 -4 4 C-4 4.66 -4 5.32 -4 6 C-4.66 6 -5.32 6 -6 6 C-6 5.01 -6 4.02 -6 3 C-3 2 -3 2 0 3 C0 2.01 0 1.02 0 0 Z " fill="#FBF8F4" transform="translate(314,340)"/>
<path d="M0 0 C0.99 0.33 1.98 0.66 3 1 C0.45287926 3.00130916 -1.9527375 4.85727656 -5 6 C-7.25 5.625 -7.25 5.625 -9 5 C-8.67 4.34 -8.34 3.68 -8 3 C-5.67793475 2.29508733 -3.34406932 1.62787571 -1 1 C-0.67 0.67 -0.34 0.34 0 0 Z " fill="#F3EBDF" transform="translate(51,285)"/>
<path d="M0 0 C4.95 0.99 4.95 0.99 10 2 C10.33 1.34 10.66 0.68 11 0 C11 0.99 11 1.98 11 3 C8.22899606 4.38550197 6.0665294 4.1877467 3 4 C2.01 3.34 1.02 2.68 0 2 C0 1.34 0 0.68 0 0 Z " fill="#EFE4D7" transform="translate(245,161)"/>
<path d="M0 0 C0.66 0 1.32 0 2 0 C2 2.97 2 5.94 2 9 C1.34 9 0.68 9 0 9 C-1.0625 7.1875 -1.0625 7.1875 -2 5 C-1 2 -1 2 0 0 Z " fill="#E4D2C2" transform="translate(327,114)"/>
<path d="M0 0 C1.32 0.33 2.64 0.66 4 1 C3.67 2.65 3.34 4.3 3 6 C2.01 6 1.02 6 0 6 C0 4.02 0 2.04 0 0 Z " fill="#CDA772" transform="translate(188,338)"/>
<path d="M0 0 C1.98 0 3.96 0 6 0 C5.34 1.65 4.68 3.3 4 5 C3.01 5 2.02 5 1 5 C0.67 3.35 0.34 1.7 0 0 Z " fill="#E9D8C1" transform="translate(157,336)"/>
<path d="M0 0 C1.98 0 3.96 0 6 0 C5.34 1.65 4.68 3.3 4 5 C3.01 5 2.02 5 1 5 C0.67 3.35 0.34 1.7 0 0 Z " fill="#E9D8C1" transform="translate(107,319)"/>
<path d="M0 0 C0.99 0.33 1.98 0.66 3 1 C3.6875 3.0625 3.6875 3.0625 4 5 C3.01 5 2.02 5 1 5 C1 4.34 1 3.68 1 3 C-1.31 3.66 -3.62 4.32 -6 5 C-5.34 4.01 -4.68 3.02 -4 2 C-2.68 2 -1.36 2 0 2 C0 1.34 0 0.68 0 0 Z " fill="#FBF8F3" transform="translate(370,341)"/>
<path d="M0 0 C0.99 0.33 1.98 0.66 3 1 C3.6875 3.0625 3.6875 3.0625 4 5 C3.01 5 2.02 5 1 5 C1 4.34 1 3.68 1 3 C-1.31 3.66 -3.62 4.32 -6 5 C-5.34 4.01 -4.68 3.02 -4 2 C-2.68 2 -1.36 2 0 2 C0 1.34 0 0.68 0 0 Z " fill="#FBF8F3" transform="translate(245,341)"/>
<path d="M0 0 C0.33 0.99 0.66 1.98 1 3 C2.65 3 4.3 3 6 3 C6 3.66 6 4.32 6 5 C4.68 5 3.36 5 2 5 C2 5.99 2 6.98 2 8 C1.34 8 0.68 8 0 8 C0 5.36 0 2.72 0 0 Z " fill="#F6F0E7" transform="translate(125,321)"/>
<path d="M0 0 C1.32 0.66 2.64 1.32 4 2 C2.1875 5 2.1875 5 0 8 C-0.99 8 -1.98 8 -3 8 C-2.5359375 7.13375 -2.5359375 7.13375 -2.0625 6.25 C-1.07416636 4.15705816 -0.4831387 2.25464725 0 0 Z " fill="#D0AD7C" transform="translate(383,245)"/>
<path d="M0 0 C1.9375 0.375 1.9375 0.375 4 1 C5.4783226 3.95664519 5.06032783 6.74229737 5 10 C1.55783328 7.3401439 1.00495326 4.09711714 0 0 Z " fill="#F0E6D7" transform="translate(353,194)"/>
<path d="M0 0 C2.475 0.99 2.475 0.99 5 2 C5 3.32 5 4.64 5 6 C3.68 5.67 2.36 5.34 1 5 C0.67 3.35 0.34 1.7 0 0 Z " fill="#E6D5C6" transform="translate(285,116)"/>
<path d="M0 0 C0.66 0 1.32 0 2 0 C1.95875 0.94875 1.9175 1.8975 1.875 2.875 C1.65026182 6.10244856 1.65026182 6.10244856 4 8 C2.35 7.67 0.7 7.34 -1 7 C-0.67 4.69 -0.34 2.38 0 0 Z " fill="#FAF7F3" transform="translate(41,282)"/>
<path d="M0 0 C1.485 0.99 1.485 0.99 3 2 C3 2.66 3 3.32 3 4 C3.66 4 4.32 4 5 4 C4.34 5.32 3.68 6.64 3 8 C2.01 7.67 1.02 7.34 0 7 C0 4.69 0 2.38 0 0 Z " fill="#F3EADD" transform="translate(189,259)"/>
<path d="M0 0 C1 2 1 2 0.44140625 3.9453125 C0.15136719 4.66460937 -0.13867188 5.38390625 -0.4375 6.125 C-0.72496094 6.84945312 -1.01242188 7.57390625 -1.30859375 8.3203125 C-1.53675781 8.87460938 -1.76492187 9.42890625 -2 10 C-2.99 10 -3.98 10 -5 10 C-3.66511872 6.40608886 -2.03977277 3.24509304 0 0 Z " fill="#D0AD7C" transform="translate(256,247)"/>
<path d="M0 0 C1 2 1 2 0.44140625 3.9453125 C0.15136719 4.66460937 -0.13867188 5.38390625 -0.4375 6.125 C-0.72496094 6.84945312 -1.01242188 7.57390625 -1.30859375 8.3203125 C-1.53675781 8.87460938 -1.76492187 9.42890625 -2 10 C-2.99 10 -3.98 10 -5 10 C-3.66511872 6.40608886 -2.03977277 3.24509304 0 0 Z " fill="#D0AD7C" transform="translate(111,247)"/>
<path d="M0 0 C0.66 0 1.32 0 2 0 C1.6875 3.375 1.6875 3.375 1 7 C0.01 7.66 -0.98 8.32 -2 9 C-2.25 3.375 -2.25 3.375 0 0 Z " fill="#F2E9DC" transform="translate(291,232)"/>
<path d="M0 0 C0.93065133 2.60582371 1.14917407 3.64198224 0.0625 6.25 C-0.4634375 7.11625 -0.4634375 7.11625 -1 8 C-1.66 8 -2.32 8 -3 8 C-2.25 2.25 -2.25 2.25 0 0 Z " fill="#FCF9F6" transform="translate(354,208)"/>
<path d="M0 0 C2.35953094 2.35953094 2.49141413 3.77895617 3 7 C1.0625 6.625 1.0625 6.625 -1 6 C-1.33 5.34 -1.66 4.68 -2 4 C-1.0625 1.875 -1.0625 1.875 0 0 Z " fill="#E7D7CA" transform="translate(300,176)"/>
<path d="M0 0 C0.33 0.66 0.66 1.32 1 2 C3.52733235 2.65555119 3.52733235 2.65555119 6 3 C6 3.33 6 3.66 6 4 C3.03 4 0.06 4 -3 4 C-3 3.34 -3 2.68 -3 2 C-2.01 1.34 -1.02 0.68 0 0 Z " fill="#F3EADE" transform="translate(224,173)"/>
<path d="M0 0 C0.33 0 0.66 0 1 0 C1 2.97 1 5.94 1 9 C0.34 9 -0.32 9 -1 9 C-1.625 5.625 -1.625 5.625 -2 2 C-1.34 1.34 -0.68 0.68 0 0 Z " fill="#FFFFFF" transform="translate(268,337)"/>
<path d="M0 0 C2.375 -0.125 2.375 -0.125 5 0 C5.66 0.66 6.32 1.32 7 2 C6.625 4.125 6.625 4.125 6 6 C5.34 5.01 4.68 4.02 4 3 C1.94074861 2.27617533 1.94074861 2.27617533 0 2 C0 1.34 0 0.68 0 0 Z " fill="#FCFBF9" transform="translate(326,319)"/>
<path d="M0 0 C1.98 0 3.96 0 6 0 C5.67 1.32 5.34 2.64 5 4 C4.34 4 3.68 4 3 4 C2.67 4.66 2.34 5.32 2 6 C1.34 4.02 0.68 2.04 0 0 Z " fill="#CFAB78" transform="translate(293,175)"/>
<path d="M0 0 C-1.36983503 3.16115776 -1.9890638 3.9927092 -5 6 C-5.33 4.68 -5.66 3.36 -6 2 C-2.25 0 -2.25 0 0 0 Z " fill="#D7BA91" transform="translate(235,162)"/>
<path d="M0 0 C0.66 0 1.32 0 2 0 C2.66 2.31 3.32 4.62 4 7 C2.0625 6.625 2.0625 6.625 0 6 C-1.24546405 3.50907189 -0.7767578 2.58919267 0 0 Z " fill="#E4D2C3" transform="translate(324,155)"/>
<path d="M0 0 C1.98 0.495 1.98 0.495 4 1 C4 1.99 4 2.98 4 4 C2.35 4.33 0.7 4.66 -1 5 C-0.67 3.35 -0.34 1.7 0 0 Z " fill="#EEE1CF" transform="translate(241,322)"/>
<path d="M0 0 C0.99 0.66 1.98 1.32 3 2 C2.34 3.65 1.68 5.3 1 7 C0.01 7 -0.98 7 -2 7 C-1.34 4.69 -0.68 2.38 0 0 Z " fill="#F6EFE5" transform="translate(441,276)"/>
<path d="M0 0 C0.66 0.33 1.32 0.66 2 1 C-0.475 4.465 -0.475 4.465 -3 8 C-3.99 7.67 -4.98 7.34 -6 7 C-4.02 4.69 -2.04 2.38 0 0 Z " fill="#F3EADD" transform="translate(382,246)"/>
<path d="M0 0 C0 0.66 0 1.32 0 2 C-2.31 2.66 -4.62 3.32 -7 4 C-7.66 3.34 -8.32 2.68 -9 2 C-2.25 0 -2.25 0 0 0 Z " fill="#EDE0CD" transform="translate(97,245)"/>
<path d="M0 0 C1.32 0.33 2.64 0.66 4 1 C4 3.31 4 5.62 4 8 C3.34 7.67 2.68 7.34 2 7 C1.26924352 4.6859378 0.59861742 2.35171131 0 0 Z " fill="#FCFBF8" transform="translate(94,195)"/>
<path d="M0 0 C0.99 0.33 1.98 0.66 3 1 C2.01 1.495 2.01 1.495 1 2 C0.34786708 4.02463255 0.34786708 4.02463255 0 6 C-1.65 6.33 -3.3 6.66 -5 7 C-3.35 4.69 -1.7 2.38 0 0 Z " fill="#D0AC7B" transform="translate(290,168)"/>
</svg>
